<svg viewBox="0 0 42 15" fill="none" xmlns="http://www.w3.org/2000/svg"><path fill-rule="evenodd" clip-rule="evenodd" d="M6.1195.4895.3772 14.0845h35.8329L41.9525.4895H6.1195ZM7.835 12.0658h1.8568l3.2676-7.6331h.075l3.0196 7.6331h1.8568l-3.8402-9.6024h-2.1474L7.835 12.0658Zm10.7926-9.6024v9.6024h1.7395V3.9169h1.5942c.4345 0 .7893.0735 1.0644.2204.2782.1438.4829.3454.6142.6048.1344.2595.2016.5595.2016.9002 0 .3408-.0672.6424-.2016.905-.1313.2625-.3345.4688-.6096.6189-.275.15-.7624.225-1.1938.225l-.8724 1.43h1.241c.7409 0 1.3645-.136 1.8709-.4079.5063-.275.8893-.6517 1.1487-1.13.2594-.4782.3892-1.0252.3892-1.641 0-.6095-.1298-1.1534-.3892-1.6316-.2563-.4814-.6361-.8596-1.1394-1.1347-.5001-.275-1.119-.4126-1.8567-.4126h-3.601Zm8.0527 9.6024V2.4634h3.601c.7377 0 1.3566.1376 1.8567.4126.5033.275.8831.6533 1.1394 1.1347.2595.4782.3892 1.0221.3892 1.6316 0 .6158-.1297 1.1628-.3892 1.641-.2594.4783-.6423.855-1.1487 1.13-.5064.272-1.13.408-1.8709.408h-1.241l.8724-1.43c.4314 0 .9188-.0751 1.1939-.2251.275-.15.4782-.3564.6095-.619.1344-.2625.2016-.5641.2016-.9049 0-.3407-.0672-.6407-.2016-.9002-.1313-.2594-.336-.461-.6142-.6048-.2751-.147-.6299-.2204-1.0644-.2204h-1.5942v8.1489h-1.7395Z" fill="#3164FA"/></svg>
