<svg xmlns="http://www.w3.org/2000/svg" width="97" height="96" fill="none"><path fill="#001F5C" fill-rule="evenodd" d="M25.687 29.942v-4.683a.48.48 0 0 1 .306-.447c2.534-.983 6.694-1.612 10.998-.335 4.205 1.247 8.51 4.305 11.553 10.539 2.56-1.923 6.733-4.217 11.545-5.297 5.131-1.153 11.024-.931 16.442 2.64a.48.48 0 0 1 .216.4v1.323c1.735.054 3.176.868 3.72 1.303a.48.48 0 0 1 .18.375v36a.48.48 0 0 1-.48.48h-63a.48.48 0 0 1-.48-.48v-35.7a.48.48 0 0 1 .353-.464l3.247-.885V32.46c0-.16.08-.31.213-.4.87-.58 3.047-1.765 5.187-2.118Zm.96-4.349v36.262c10.556-2.308 18.021 3.467 21.24 7.96v-33.95c-2.943-6.294-7.14-9.272-11.17-10.468-3.9-1.157-7.68-.655-10.07.196ZM46.373 71.28c-4.962-3.6-15.15-7.674-25.367-1.804a.48.48 0 0 1-.72-.416V35.706l-2.64.72V71.28h28.727Zm4.033 0h29.28V36.003c-.532-.36-1.645-.912-2.94-.96v34.316a.48.48 0 0 1-.819.34c-2.708-2.708-11.413-6.54-25.521 1.58Zm-2.938-.378c-4.817-3.73-15.42-8.398-26.221-2.656V32.722c.898-.56 2.696-1.482 4.44-1.806V62.46a.48.48 0 0 0 .594.467c10.817-2.65 18.32 3.586 21.188 7.976Zm1.379-34.91c2.431-1.889 6.613-4.25 11.452-5.337 4.885-1.097 10.405-.89 15.488 2.365v35.282c-3.815-2.957-13.057-5.639-26.94 2.784V35.993Z" clip-rule="evenodd"/><path fill="#3164FA" d="M57.566 41.34V29.377c3.837-2.024 8.417-2.225 12.405-.517v12.504a.6.6 0 0 1-.958.481l-5.346-3.985-5.134 3.956a.6.6 0 0 1-.967-.476Z"/></svg>
