<svg xmlns="http://www.w3.org/2000/svg" fill="none" viewBox="0 0 162 40"><path fill="#000" fill-rule="evenodd" d="M16.704 2.334 14.66.108c3.08-.407 11.202.115 19.066 5.458.102.738.08 1.474.08 1.474l.206.114c.375.516.807 1.484 1.064 2.683.257 1.196.328 2.567.031 3.873a9.204 9.204 0 0 1-1.428 3.21c-.571.816-1.095 1.277-1.26 1.376l-.053.032c-.971.18-2.312.893-2.857 2.685-1.594.992-4.287 2.08-7.948 2.08-3.245 0-6.549-.94-9.025-2.749-2.462-1.798-4.108-4.452-4.108-7.948 0-2.774 1.243-4.944 2.831-6.547 1.6-1.616 3.79-2.923 5.042-3.352l.31-.106-.018-.016.113-.04ZM30.24 6.697c-.62.693-1.198 1.025-1.363 1.115-3.615-.826-4.918-2.834-4.918-2.834 3.41-.022 6.488.848 8.74 2.321 0 0-1.22-.424-2.46-.602Z" clip-rule="evenodd"/><path fill="#000" d="M13.445 2.713C5.776 4.544 0 11.563 0 20.005 0 30.954 9.254 40 20.67 40c8.524 0 15.62-5.212 19.33-12.185-4.826 1.144-10.569-.821-10.852-5.164l.026-.103c-1.801.917-4.372 1.72-7.614 1.72-3.452 0-7.009-.996-9.718-2.975-2.725-1.99-4.59-4.979-4.59-8.897 0-3.159 1.425-5.61 3.171-7.374h.001c.815-.815 1.868-1.592 2.836-2.195l.185-.114Z"/><path fill="#000" d="M7.44 12.396c0-3.097 1.395-5.504 3.117-7.242.996-.996 2.361-1.94 3.483-2.571-1.122.63-2.487 1.575-3.483 2.571C8.835 6.892 7.44 9.3 7.44 12.396Zm26.51 6.073c.352.144.567.334.68.453.271.287.95 1.15.136 2.514 1.694-.287 4.34-2.011 4.54-6.392.133-2.912-1.39-5.037-3.398-6.617.121.366.228.756.316 1.164.283 1.32.372 2.869.028 4.38a10.377 10.377 0 0 1-1.611 3.622 9.425 9.425 0 0 1-.692.876Zm81.32-8.206c2.928 0 4.768.828 6.511 2.313l-1.888 2.265c-1.307-1.12-2.614-1.802-4.744-1.802-3.098 0-5.495 2.728-5.495 5.99l.002.204c.066 3.428 2.349 5.934 5.759 5.934 1.622 0 3.05-.512 4.091-1.291V20.71l2.88-2.63v7.16c-1.694 1.436-4.066 2.654-7.068 2.654-5.301 0-8.786-3.799-8.786-8.767l.001-.204c.078-4.705 3.661-8.66 8.737-8.66Zm19.169 0c5.203 0 8.834 3.97 8.834 8.767l-.001.202c-.078 4.706-3.734 8.662-8.882 8.662-5.204 0-8.834-3.97-8.834-8.767l.001-.202c.078-4.706 3.734-8.662 8.882-8.662Zm-75.034.17 7.455 17.169h-3.03l-5.853-13.589-5.81 13.589h-2.976l7.455-17.169h2.76Zm38.398 0 7.455 17.169h-3.031l-5.852-13.589-5.81 13.589H87.59l7.455-17.169h2.759Zm51.442.122 9.076 11.787V10.555h2.929v17.047h-2.493l-9.343-12.128v12.128h-2.929V10.555h2.76ZM134.39 13.04c-3.364 0-5.712 2.679-5.712 5.99l.001.195c.069 3.246 2.421 5.894 5.76 5.894 3.364 0 5.712-2.679 5.712-5.99l-.002-.195c-.068-3.246-2.42-5.894-5.759-5.894Zm-56.373-2.777c2.135 0 3.808.644 4.9 1.733.897.965 1.406 2.228 1.406 3.738v.142c-.036 2.73-1.627 4.395-3.873 5.108l-.153.047 4.584 6.56H81.34l-4.171-6.04h-2.19l1.537-2.699h1.283c2.086 0 3.43-1.063 3.49-2.775l.002-.12v-.116c-.03-1.839-1.311-2.806-3.516-2.806h-4.341v5.357h-.003v3.864l.003-.002v5.337h-2.983V10.263h7.567Z"/></svg>