<svg xmlns="http://www.w3.org/2000/svg" fill="none" viewBox="0 0 40 40"><path fill="#000" fill-rule="evenodd" d="M15.92 2.047 14.092.108C17.254-.299 25.6.223 33.677 5.566c.105.738.082 1.474.082 1.474l.596.322.003.005.001-.008.012.008c.334.573.672 1.426.887 2.43.261 1.216.335 2.616.031 3.954a9.39 9.39 0 0 1-1.457 3.276 7.159 7.159 0 0 1-1.086 1.252c-1.032.021-2.953.713-3.502 3.11-1.655.945-4.253 1.891-7.684 1.891-3.278 0-6.622-.948-9.136-2.784-2.503-1.83-4.185-4.536-4.185-8.1 0-2.835 1.273-5.05 2.886-6.679 1.618-1.634 3.831-2.958 5.114-3.397l-.318-.273Zm14.176 4.65c-.636.693-1.23 1.025-1.4 1.115-3.714-.826-5.052-2.834-5.052-2.834 3.503-.022 6.664.848 8.978 2.321 0 0-1.253-.424-2.526-.602Z" clip-rule="evenodd"/><path fill="#000" d="M14.04 2.583C6.077 4.184 0 11.346 0 20.005 0 30.954 9.254 40 20.67 40c8.524 0 15.62-5.212 19.33-12.185-4.934 1.17-10.826-.91-10.863-5.459-1.776.913-4.334 1.724-7.578 1.724-3.418 0-6.935-.986-9.607-2.938-2.682-1.96-4.513-4.895-4.513-8.746 0-3.097 1.396-5.504 3.117-7.242.997-.996 2.362-1.94 3.484-2.571Zm22 7.047a10.797 10.797 0 0 0-.402-1.41c2.14 1.6 3.807 3.782 3.668 6.824-.2 4.381-2.846 6.105-4.54 6.392.813-1.365.135-2.227-.136-2.514a2.007 2.007 0 0 0-.871-.522 9.2 9.2 0 0 0 .728-.915 10.19 10.19 0 0 0 1.582-3.556c.336-1.478.25-2.999-.029-4.299Z"/></svg>