<svg xmlns="http://www.w3.org/2000/svg" width="1440" height="355"><path fill="url(#a)" fill-rule="evenodd" d="m473.998-411.433 482.418 278.524-59.381 34.284L597.518-271.55l15.56-8.984-.328-.566-15.886 9.172-59.379-34.283 45.576-26.313-.327-.567-45.903 26.503-92.524-53.419-.327.567 92.196 53.23-59.381 34.283-62.504-36.087-.327.567 62.177 35.898-59.378 34.282-32.489-18.757-.327.566 32.162 18.569-59.381 34.283-2.472-1.427-.327.567 2.144 1.238-101.918 58.843.328.567 102.245-59.032 59.379 34.282-59.38 34.283-32.487-18.756-.327.566 32.16 18.568-59.381 34.284-2.471-1.426-.327.566 2.143 1.238-88.508 51.1.327.567 88.836-51.29 59.38 34.284-59.381 34.284-32.487-18.756-.327.566 32.159 18.568-59.378 34.282-23.576-13.611-.327.566 23.248 13.423L34.536 122.054l.328.567L236.658 6.115l59.377 34.281-59.377 34.282L204.17 55.92l-.327.567 32.16 18.568-59.381 34.283-2.469-1.425-.327.566 2.142 1.237-111.415 64.326.327.567 111.742-64.515 59.381 34.284-59.379 34.282-32.488-18.756-.327.566 32.16 18.568-59.38 34.284-2.469-1.426-.327.567 2.142 1.236-21.364 12.335.327.566 21.691-12.523 59.379 34.283-59.381 34.283-32.485-18.755-.328.566 32.159 18.567-59.38 34.283-2.468-1.426-.328.567 2.142 1.236L0 349.956l.327.567 56.227-32.463 179.448 103.605-59.381 34.283-152.553-88.077-.328.567 152.227 87.888-47.52 27.436.327.566 47.847-27.624 119.415 68.943-21.363 12.334.327.567 21.69-12.523 59.38 34.283-51.38 29.665.327.566 51.707-29.853 59.381 34.284-81.397 46.995.327.566 81.724-47.184 59.38 34.283-4.972 2.871.327.567 5.299-3.06 179.45 103.606-3.864 2.23.327.567 4.191-2.42 56.282 32.495.327-.567-55.954-32.305 59.38-34.284 25.112 14.499.327-.567-24.785-14.309 59.379-34.283 65.773 37.974.328-.566-65.446-37.786 59.381-34.284 59.379 34.283-56.592 32.674.328.566 56.919-32.862 59.381 34.284-63.899 36.892.327.567 64.226-37.081 78.08 45.079.33-.567-77.756-44.89 59.376-34.284 48.07 27.748.32-.566-47.73-27.559 59.38-34.283 18.04 10.418.33-.567-17.72-10.229 59.38-34.284 135.34 78.14.33-.567-135.01-77.95 241.68-139.534-.33-.566-181.97 105.062-59.38-34.284L1440 351.187l-.33-.566-122.4 70.666-59.37-34.283 105.46-60.892-.32-.567-105.8 61.081-59.38-34.283 59.38-34.283 18.05 10.419.32-.567-17.72-10.23 120.6-69.626-.33-.566-60.89 35.153-59.38-34.283 22.35-12.904-.32-.566-22.68 13.092-59.38-34.283 59.38-34.282 78.08 45.081.33-.567-77.76-44.892 59.38-34.283 48.07 27.749.32-.567-47.73-27.56 59.38-34.284 18.04 10.419.33-.567-257.85-148.873 71.12-41.062-.33-.567-71.45 41.251-179.445-103.604 29.119-16.812-.327-.566-29.446 17L474.325-412l-.327.567ZM656.897 733.236 477.447 629.63l59.381-34.283 179.449 103.606-59.38 34.283ZM476.793 629.252l-59.379-34.282 59.38-34.284 59.379 34.283-59.38 34.283Zm-60.034-34.66-59.38-34.284 59.38-34.283 59.381 34.284-59.381 34.283Zm-60.035-34.661-59.38-34.284 59.38-34.283 59.381 34.283-59.381 34.284ZM296.69 525.27l-119.414-68.944 59.38-34.283 59.38 34.283-51.38 29.664.327.567 51.708-29.853 59.379 34.282-59.38 34.284ZM116.587 283.4l-59.379 34.282 179.448 103.605 59.379-34.283-59.379-34.282-51.708 29.853-.327-.566 51.38-29.665-59.378-34.282-21.691 12.523-.327-.567 21.363-12.334-59.381-34.284Zm180.102 103.982-59.379 34.283 59.381 34.283 59.379-34.283-59.381-34.283Zm60.035 34.661-59.379 34.283 59.38 34.283 59.379-34.283-59.38-34.283Zm60.034 34.661-59.379 34.282 59.38 34.284 59.379-34.283-59.38-34.283Zm60.034 34.661-59.379 34.282 59.381 34.284 59.379-34.283-59.381-34.283Zm60.035 34.661-59.379 34.283 59.38 34.282 59.379-34.282-59.38-34.283Zm60.034 34.661-59.379 34.282 59.38 34.284 59.379-34.283-59.38-34.283Zm60.035 34.661-59.379 34.282 119.415 68.945 59.379-34.283-119.415-68.944Zm120.069 68.566-59.381-34.284 59.381-34.283 59.381 34.284-59.381 34.283Zm-60.036-34.661L657.55 594.97l59.381-34.284 59.379 34.283-59.381 34.284Zm-60.033-34.661-59.38-34.283 59.381-34.284 59.38 34.283-59.381 34.284Zm-60.035-34.661-59.379-34.283 59.381-34.283 59.379 34.282-59.381 34.284Zm-60.034-34.66-59.38-34.284 59.381-34.284 59.38 34.284-59.381 34.284Zm-60.035-34.662-59.38-34.283 59.381-34.284 59.38 34.284-59.381 34.283Zm-60.034-34.661-59.38-34.283 59.381-34.283 59.38 34.283-59.381 34.283Zm-60.034-34.66-59.38-34.284 59.381-34.283 59.38 34.283-59.381 34.284Zm-60.035-34.661-59.379-34.283 59.381-34.284 59.379 34.283-59.381 34.284Zm-60.033-34.661-59.379-34.282 59.381-34.284 59.379 34.282-59.381 34.284Zm-60.033-34.66-59.382-34.284 59.381-34.284 59.382 34.284-59.381 34.284Zm.001-137.889-59.38 34.283 59.378 34.283 59.381-34.283-59.379-34.283Zm60.033 34.66-59.38 34.284 59.381 34.283 59.38-34.283-59.381-34.284Zm60.036 34.662-59.381 34.283 59.379 34.283 59.38-34.284-59.378-34.282Zm60.033 34.66-59.38 34.283 59.379 34.283 59.38-34.283-59.379-34.283Zm60.034 34.661-59.381 34.283 59.38 34.283 59.381-34.283-59.38-34.283Zm60.034 34.661-59.38 34.283 59.379 34.283 59.381-34.284-59.38-34.282Zm60.034 34.66-59.38 34.284 59.38 34.283 59.38-34.284-59.38-34.283Zm60.035 34.661-59.381 34.284 59.381 34.283 59.38-34.283-59.38-34.284Zm60.034 34.661-59.38 34.284 59.38 34.283 59.38-34.284-59.38-34.283Zm60.034 34.661-59.38 34.283 59.38 34.284 59.381-34.284-59.381-34.283Zm60.035 34.661-59.38 34.283 59.379 34.283 59.38-34.283-59.379-34.283ZM837 560.685l-59.381 34.284L837 629.253l59.381-34.284L837 560.685Zm60.035 34.662-59.38 34.284 59.38 34.283 59.38-34.284-59.38-34.283Zm60.035 34.661-59.381 34.283 59.381 34.284 59.38-34.283-59.38-34.284Zm60.03 33.906-59.376-34.284 59.376-34.283 59.38 34.284-59.38 34.283Zm-60.031-34.662-59.379-34.283 59.379-34.282 59.381 34.282-59.381 34.283Zm-60.034-34.66-59.381-34.284 59.379-34.283 59.382 34.284-59.38 34.283Zm-60.036-34.662-59.379-34.283L837 491.364l59.379 34.283-59.38 34.283Zm-60.033-34.661-59.38-34.283 59.379-34.283 59.381 34.284-59.38 34.282Zm-60.035-34.661-59.379-34.282 59.379-34.283 59.38 34.283-59.38 34.282Zm-60.033-34.66-59.381-34.284 59.38-34.282 59.38 34.283-59.379 34.283Zm-60.035-34.661-59.381-34.284 59.38-34.282 59.38 34.283-59.379 34.283Zm-60.035-34.661-59.379-34.283 59.379-34.283 59.38 34.283-59.38 34.283Zm-60.034-34.661-59.38-34.283 59.38-34.283 59.38 34.283-59.38 34.283Zm-60.035-34.661-59.379-34.283 59.38-34.283 59.379 34.283-59.38 34.283Zm-60.033-34.661-59.379-34.282 59.38-34.283 59.378 34.283-59.379 34.282Zm-60.033-34.66L237.312 213.7l59.379-34.283 59.381 34.284-59.379 34.282Zm-60.036-34.661-59.379-34.283 59.38-34.283 59.379 34.283-59.38 34.283Zm.001-137.889-59.381 34.284 59.381 34.284 59.381-34.284-59.381-34.284Zm60.035 34.662-59.381 34.284 59.379 34.282 59.381-34.283-59.379-34.283Zm60.033 34.66-59.381 34.284 59.382 34.284 59.381-34.284-59.382-34.284Zm60.036 34.662-59.381 34.284 59.379 34.282 59.381-34.284-59.379-34.282Zm60.033 34.66-59.381 34.284 59.379 34.282 59.381-34.283-59.379-34.283Zm60.034 34.661-59.381 34.283 59.38 34.283 59.381-34.283-59.38-34.283Zm60.034 34.661-59.381 34.283 59.38 34.283 59.381-34.284-59.38-34.282Zm60.034 34.66-59.381 34.284 59.381 34.283 59.38-34.284-59.38-34.283Zm60.035 34.661-59.381 34.284 59.381 34.283 59.38-34.283-59.38-34.284Zm60.035 34.661-59.381 34.284 59.379 34.283 59.381-34.284-59.379-34.283Zm60.034 34.661-59.381 34.284L837 490.609l59.381-34.284-59.38-34.283Zm60.034 34.661-59.381 34.284 59.379 34.282 59.381-34.283-59.379-34.283Zm60.034 34.66-59.381 34.284 59.381 34.284 59.381-34.284-59.381-34.284Zm60.031 34.662-59.376 34.284 59.376 34.283 59.38-34.284-59.38-34.283Zm60.04 34.661-59.38 34.284 59.38 34.283 59.38-34.283-59.38-34.284Zm60.03 33.906-59.38-34.284 59.38-34.282 59.38 34.284-59.38 34.282Zm-60.03-34.662-59.38-34.283 59.38-34.282 59.38 34.283-59.38 34.282Zm-60.04-34.661-59.377-34.283 59.377-34.282 59.38 34.283-59.38 34.282Zm-60.031-34.661-59.379-34.283 59.378-34.282 59.382 34.283-59.381 34.282Zm-60.034-34.661-59.38-34.283 59.378-34.282 59.38 34.283-59.378 34.282Zm-60.034-34.661-59.38-34.282 59.378-34.282 59.379 34.283-59.377 34.281Zm-60.034-34.66-59.381-34.284 59.378-34.281 59.381 34.283-59.378 34.282Zm-60.035-34.661-59.38-34.284 59.377-34.281 59.381 34.283-59.378 34.282Zm-60.035-34.661-59.379-34.283 59.378-34.282 59.379 34.283-59.378 34.282Zm-60.034-34.661-59.38-34.283 59.378-34.282 59.38 34.283-59.378 34.282Zm-60.034-34.661-59.38-34.283 59.378-34.281 59.379 34.282-59.377 34.282Zm-60.034-34.661-59.379-34.282 59.378-34.282 59.379 34.283-59.378 34.281Zm-60.033-34.66-59.381-34.283 59.377-34.282 59.382 34.284-59.378 34.281ZM356.726 144l-59.379-34.283 59.378-34.281 59.379 34.282L356.726 144Zm-60.033-34.661-59.381-34.283 59.377-34.282 59.381 34.284-59.377 34.281Zm-.002-137.885L237.312 5.737l59.377 34.281 59.379-34.282-59.377-34.281Zm60.032 34.66-59.379 34.282 59.381 34.284 59.379-34.283-59.381-34.283Zm60.035 34.661-59.379 34.283 59.379 34.282 59.379-34.282-59.379-34.283Zm60.033 34.66-59.378 34.283 59.381 34.284 59.379-34.283-59.382-34.283Zm60.036 34.662-59.379 34.283 59.379 34.282 59.379-34.282-59.379-34.283Zm60.033 34.66-59.379 34.283 59.38 34.282 59.378-34.282-59.379-34.283Zm60.034 34.661L597.515 213.7l59.38 34.283 59.379-34.282-59.38-34.283Zm60.034 34.661-59.378 34.282 59.379 34.283 59.379-34.282-59.38-34.283Zm60.034 34.661-59.378 34.282 59.38 34.283 59.378-34.282-59.38-34.283Zm60.035 34.661-59.379 34.282 59.381 34.283 59.378-34.282-59.38-34.283Zm60.035 34.661-59.379 34.282 59.38 34.283 59.378-34.282-59.379-34.283Zm60.034 34.66-59.379 34.283 59.381 34.283 59.382-34.282-59.384-34.284Zm60.034 34.661-59.378 34.283 59.378 34.282 59.38-34.282-59.38-34.283Zm60.03 34.661-59.37 34.282 59.38 34.284 59.37-34.282-59.38-34.284Zm60.04 34.662-59.38 34.282 59.38 34.282 59.38-34.282-59.38-34.282Zm60.03 33.905-59.38-34.283 119.42-68.946 59.38 34.283-119.42 68.946Zm-60.03-34.661-59.38-34.284 59.38-34.284 59.38 34.284-59.38 34.284Zm-60.04-34.662-59.38-34.282 59.39-34.284 59.37 34.282-59.38 34.284Zm-60.03-34.66-59.38-34.283 59.38-34.284 59.38 34.283-59.38 34.284Zm-60.034-34.661-59.38-34.283 59.382-34.284 59.382 34.283-59.384 34.284Zm-60.034-34.661-59.381-34.283 59.381-34.284 59.381 34.283-59.381 34.284Zm-60.035-34.661-59.38-34.283 59.381-34.284 59.38 34.283-59.381 34.284Zm-60.035-34.661-59.379-34.283 59.381-34.284 59.38 34.283-59.382 34.284Zm-60.034-34.661-59.38-34.283 59.382-34.284 59.38 34.283-59.382 34.284Zm-60.034-34.661-59.38-34.282 59.382-34.284 59.379 34.282-59.381 34.284Zm-60.034-34.66-59.379-34.283 59.382-34.283 59.378 34.282-59.381 34.284Zm-60.033-34.66-59.381-34.284 59.381-34.284 59.381 34.284-59.381 34.284ZM476.791 74.68l-59.379-34.283 59.382-34.283 59.379 34.282-59.382 34.284Zm-60.033-34.66L357.377 5.736l59.381-34.284 59.381 34.284-59.381 34.284ZM356.723 5.358l-59.378-34.281 59.382-34.284 59.377 34.281-59.381 34.284Zm.004-137.888-59.381 34.284 59.381 34.283 59.381-34.284-59.381-34.283Zm60.035 34.661-59.381 34.284 59.377 34.282 59.382-34.284-59.378-34.282Zm60.032 34.66-59.381 34.283 59.381 34.284 59.381-34.284-59.381-34.284Zm60.035 34.66L477.448 5.737l59.379 34.282 59.381-34.284-59.379-34.282Zm60.034 34.661-59.382 34.284 59.382 34.284 59.381-34.284-59.381-34.284Zm60.035 34.662-59.381 34.284 59.379 34.282 59.381-34.284-59.379-34.282Zm60.033 34.66-59.381 34.284 59.379 34.283 59.382-34.284-59.38-34.283Zm60.034 34.661-59.381 34.283 59.38 34.284 59.381-34.284-59.38-34.283ZM837 144.756l-59.382 34.283 59.38 34.283 59.381-34.284L837 144.756Zm60.034 34.66L837.652 213.7l59.381 34.283 59.381-34.284-59.38-34.283Zm60.034 34.661-59.381 34.284 59.381 34.283 59.382-34.283-59.382-34.284Zm60.032 34.661-59.378 34.284 59.378 34.283 59.38-34.284-59.38-34.283Zm60.04 34.661-59.38 34.284 59.38 34.283 59.38-34.284-59.38-34.283Zm60.03 34.661-59.38 34.284 59.38 34.282 59.38-34.283-59.38-34.283Zm60.03 34.66-59.38 34.284 59.39 34.284 59.38-34.284-59.39-34.284Zm0-.755-59.37-34.283 59.38-34.283 59.37 34.283-59.38 34.283Zm-60.03-34.661-59.38-34.283 59.38-34.282 59.38 34.283-59.38 34.282Zm-60.03-34.661-59.38-34.282 59.38-34.283 59.38 34.283-59.38 34.282Zm-60.04-34.66-59.377-34.284 59.377-34.282 59.38 34.283-59.38 34.283Zm-60.032-34.661-59.38-34.284 59.379-34.282 59.383 34.283-59.382 34.283Zm-60.034-34.661-59.38-34.283 59.38-34.283 59.379 34.283-59.379 34.283ZM837 144l-59.38-34.283 59.379-34.283 59.38 34.283L837 144Zm-60.035-34.661-59.379-34.283 59.379-34.282 59.38 34.282-59.38 34.283Zm-60.034-34.66-59.378-34.283 59.379-34.283 59.379 34.283-59.38 34.282Zm-60.033-34.66L597.517 5.733l59.38-34.282 59.381 34.284-59.38 34.282ZM596.863 5.356l-59.379-34.283 59.379-34.283 59.379 34.283-59.379 34.283Zm-60.034-34.66-59.381-34.284 59.38-34.283 59.381 34.284-59.38 34.282Zm-60.035-34.662-59.377-34.282 59.379-34.282 59.377 34.281-59.379 34.283Zm-60.032-34.66-59.38-34.283 59.379-34.283 59.381 34.284-59.38 34.283Zm.001-137.887-59.381 34.283 59.379 34.283 59.381-34.284-59.379-34.282Zm60.033 34.66-59.381 34.283 59.381 34.284 59.381-34.284-59.381-34.283Zm60.035 34.661-59.38 34.284 59.377 34.281 59.38-34.283-59.377-34.282Zm60.032 34.659-59.381 34.284 59.381 34.284 59.381-34.284-59.381-34.284Zm60.035 34.662-59.38 34.284 59.379 34.282 59.38-34.283-59.379-34.283Zm60.034 34.66-59.381 34.284 59.381 34.284 59.381-34.284-59.381-34.284Zm60.035 34.662-59.38 34.284 59.378 34.282 59.381-34.284-59.379-34.282ZM837 6.112l-59.38 34.284 59.379 34.282 59.381-34.283L837 6.112Zm60.034 34.66-59.381 34.284 59.381 34.283 59.38-34.283-59.38-34.283Zm60.035 34.662-59.381 34.283L957.068 144l59.382-34.284-59.381-34.282Zm60.031 34.66-59.378 34.284 59.378 34.283 59.38-34.284-59.38-34.283Zm60.04 34.661-59.38 34.284 59.38 34.283 59.38-34.283-59.38-34.284Zm60.03 34.662-59.38 34.283 59.38 34.283 59.38-34.284-59.38-34.282Zm60.04 34.66-59.38 34.284 59.38 34.283 59.38-34.284-59.38-34.283Zm60.03 34.661-59.38 34.284 59.38 34.282 59.38-34.283-59.38-34.283Zm-60.03-35.417-59.38-34.282 59.37-34.282 59.38 34.282-59.37 34.282Zm-60.04-34.66-59.38-34.284 59.38-34.282 59.38 34.284-59.38 34.282ZM1077.14 144l-59.38-34.284 59.38-34.282 59.38 34.284L1077.14 144Zm-60.04-34.661-59.377-34.283 59.377-34.282 59.38 34.282-59.38 34.283Zm-60.031-34.661-59.38-34.283 59.378-34.282 59.383 34.283-59.381 34.282Zm-60.035-34.661L837.655 5.734l59.378-34.282 59.379 34.283-59.378 34.282ZM837 5.357l-59.378-34.283L837-63.208l59.379 34.282L837 5.356Zm-60.033-34.66-59.381-34.284 59.378-34.282 59.382 34.283-59.379 34.282Zm-60.035-34.662-59.379-34.283 45.576-26.314-.327-.566-45.904 26.502-59.381-34.283 59.378-34.282L776.31-98.247l-59.378 34.282Zm-120.069-69.322-59.377-34.282 59.378-34.282 59.377 34.282-59.378 34.282Zm-60.032-34.66-59.38-34.283 59.378-34.282 59.38 34.283-59.378 34.282Zm-60.035-34.661-59.379-34.282 59.378-34.282 59.379 34.282-59.378 34.282Zm60.034-103.226-59.38 34.284 59.379 34.282 59.38-34.283-59.379-34.283Zm60.034 34.661-59.381 34.283 59.381 34.284 45.904-26.503.327.567-45.577 26.313 59.378 34.282 15.888-9.173.327.567-15.561 8.984 119.414 68.944 34.588-19.969.327.567-34.26 19.78L837-63.964l59.381-34.283-299.517-172.926ZM897.035-97.869l-59.381 34.283 59.379 34.283 59.381-34.284-59.379-34.282Zm60.033 34.66-59.38 34.283 59.379 34.283 59.383-34.283-59.382-34.283Zm60.032 34.66L957.721 5.735l59.379 34.283 59.38-34.283-59.38-34.284Zm60.04 34.661-59.38 34.284 59.38 34.283 59.38-34.284-59.38-34.283Zm60.03 34.661-59.38 34.283 59.38 34.284 59.38-34.284-59.38-34.283Zm60.03 34.661-59.38 34.284 59.38 34.283 59.39-34.283-59.39-34.284Zm60.04 34.661-59.38 34.284 59.38 34.283 59.38-34.284-59.38-34.283ZM1317.27 144l-59.38-34.282 5.16-2.979-.32-.567-5.49 3.168-59.38-34.284 25.98-15-.33-.566-26.31 15.188-59.82-34.542-.11-.178-.1.06-59.38-34.283 59.38-34.284 239.49 138.265L1317.27 144ZM1077.14 5.357l-59.38-34.283.92-.532-.33-.567-1.25.72-59.377-34.282 59.137-34.143-.24-.422 119.9 69.225-59.38 34.284ZM957.068-63.965l-59.379-34.282 59.382-34.284 59.379 34.282-59.382 34.284Z" clip-rule="evenodd"/><defs><radialGradient id="a" cx="0" cy="0" r="1" gradientTransform="matrix(0 437.541 -534.636 0 776.781 121.319)" gradientUnits="userSpaceOnUse"><stop stop-color="#93B2FF"/><stop offset="1" stop-color="#93B2FF" stop-opacity="0"/></radialGradient></defs></svg>
