<svg width="97" height="96" viewBox="0 0 97 96" fill="none" xmlns="http://www.w3.org/2000/svg">
    <path fill-rule="evenodd" clip-rule="evenodd" d="M25.6866 29.9417V25.2594C25.6866 25.0612 25.8083 24.8835 25.9931 24.8118C28.5273 23.8292 32.6869 23.1997 36.9906 24.4767C41.1957 25.7244 45.5006 28.7817 48.5443 35.0155C51.1037 33.0933 55.2773 30.7992 60.0889 29.7185C65.2201 28.5661 71.1129 28.7877 76.5307 32.3586C76.6655 32.4474 76.7466 32.598 76.7466 32.7594V34.0824C78.4823 34.136 79.9234 34.9503 80.4664 35.3847C80.5803 35.4758 80.6466 35.6138 80.6466 35.7596V71.7596C80.6466 72.0247 80.4317 72.2396 80.1666 72.2396H17.1666C16.9015 72.2396 16.6866 72.0247 16.6866 71.7596V36.0596C16.6866 35.8431 16.8315 35.6534 17.0403 35.5965L20.2866 34.7111V32.4596C20.2866 32.2991 20.3668 32.1492 20.5003 32.0602C21.3692 31.4809 23.5467 30.2955 25.6866 29.9417ZM26.6466 25.5931V61.8554C37.2028 59.547 44.6682 65.3224 47.8866 69.815V35.8656C44.9441 29.5707 40.747 26.5927 36.7175 25.397C32.8173 24.2398 29.0373 24.7423 26.6466 25.5931ZM46.3725 71.2796C41.4105 67.6794 31.2228 63.6064 21.0057 69.4757C20.8571 69.5611 20.6744 69.5608 20.5261 69.475C20.3779 69.3892 20.2866 69.2308 20.2866 69.0595V35.7062L17.6466 36.4262V71.2796H46.3725ZM50.4056 71.2796H79.6866V36.0029C79.154 35.6425 78.0412 35.0908 76.7466 35.0429V69.3594C76.7466 69.5536 76.6296 69.7286 76.4503 69.8029C76.2709 69.8772 76.0645 69.8361 75.9272 69.6988C73.219 66.9906 64.5138 63.1587 50.4056 71.2796ZM47.4685 70.9019C42.6512 67.1719 32.0486 62.5042 21.2466 68.2457V32.7215C22.1448 32.1617 23.9428 31.2402 25.6866 30.9163V62.4594C25.6866 62.6068 25.7543 62.746 25.8703 62.837C25.9862 62.928 26.1376 62.9607 26.2808 62.9256C37.0982 60.2764 44.6012 66.5124 47.4685 70.9019ZM48.8466 35.9925C51.2784 34.1031 55.4599 31.7421 60.2993 30.6552C65.1839 29.5582 70.7037 29.7649 75.7866 33.0199V68.3021C71.9721 65.3453 62.73 62.6633 48.8466 71.0861V35.9925Z" fill="#001F5C"/>
    <path d="M57.5664 41.3403L57.5662 29.3771C61.4035 27.3533 65.9833 27.1519 69.9714 28.8597L69.9714 41.3643C69.9714 41.8579 69.4085 42.1404 69.0127 41.8453L63.6666 37.8597L58.5326 41.8155C58.1381 42.1195 57.5664 41.8383 57.5664 41.3403Z" fill="#3164FA"/>
</svg>
