<svg width="97" height="96" viewBox="0 0 97 96" fill="none" xmlns="http://www.w3.org/2000/svg">
    <path d="M56.055 38.1832C56.055 38.4483 55.8401 38.6632 55.575 38.6632H48.9577C48.6926 38.6632 48.4777 38.4483 48.4777 38.1832C48.4777 37.9181 48.6926 37.7032 48.9577 37.7032H55.575C55.8401 37.7032 56.055 37.9181 56.055 38.1832Z" fill="#001F5C"/>
    <path d="M64.8388 45.2579C65.1039 45.2579 65.3188 45.043 65.3188 44.7779C65.3188 44.5128 65.1039 44.2979 64.8388 44.2979H48.9574C48.6923 44.2979 48.4774 44.5128 48.4774 44.7779C48.4774 45.043 48.6923 45.2579 48.9574 45.2579H64.8388Z" fill="#001F5C"/>
    <path d="M65.319 51.3726C65.319 51.6377 65.1041 51.8526 64.839 51.8526H48.9576C48.6925 51.8526 48.4776 51.6377 48.4776 51.3726C48.4776 51.1075 48.6925 50.8926 48.9576 50.8926H64.839C65.1041 50.8926 65.319 51.1075 65.319 51.3726Z" fill="#001F5C"/>
    <path d="M64.8388 58.4474C65.1039 58.4474 65.3188 58.2325 65.3188 57.9674C65.3188 57.7023 65.1039 57.4874 64.8388 57.4874H58.2216C57.9565 57.4874 57.7416 57.7023 57.7416 57.9674C57.7416 58.2325 57.9565 58.4474 58.2216 58.4474H64.8388Z" fill="#001F5C"/>
    <path fill-rule="evenodd" clip-rule="evenodd" d="M43.5398 28.9506C42.8771 28.9506 42.3398 29.4878 42.3398 30.1506V65.9999C42.3398 66.6626 42.8771 67.1999 43.5398 67.1999H70.2558C70.9185 67.1999 71.4558 66.6626 71.4558 65.9999V30.1506C71.4558 29.4878 70.9185 28.9506 70.2558 28.9506H43.5398ZM70.2558 29.9106H43.5398C43.4073 29.9106 43.2998 30.018 43.2998 30.1506V65.9999C43.2998 66.1324 43.4073 66.2399 43.5398 66.2399H70.2558C70.3883 66.2399 70.4958 66.1324 70.4958 65.9999V30.1506C70.4958 30.018 70.3883 29.9106 70.2558 29.9106Z" fill="#001F5C"/>
    <path d="M33.6778 34.3441C35.1104 31.8192 33.2566 28.8 30.4392 28.8C28.3763 28.8 26.7047 30.4659 26.7047 32.5219C26.7047 34.8666 28.8842 36.7008 31.2937 36.1365L33.7256 39.3701C34.008 39.7452 34.4501 39.9656 34.9207 39.9656H37.9134C38.7356 39.9656 39.4022 39.299 39.4022 38.4768C39.4022 37.6546 38.7356 36.9881 37.9134 36.9881H35.6676L33.6778 34.3441Z" fill="#3164FA"/>
    <path d="M28.9454 51.1309C26.8824 51.1309 25.2108 49.465 25.2108 47.4091C25.2108 45.3531 26.8824 43.6873 28.9454 43.6873C30.4765 43.6873 31.7881 44.6073 32.3647 45.9204H37.9134C38.7356 45.9204 39.4022 46.5869 39.4022 47.4091C39.4022 48.2313 38.7356 48.8978 37.9134 48.8978H32.3647C31.7881 50.2109 30.4765 51.1309 28.9454 51.1309Z" fill="#3164FA"/>
    <path d="M30.4392 66.0184C28.3763 66.0184 26.7047 64.3525 26.7047 62.2966C26.7047 59.9503 28.8856 58.1177 31.2922 58.6819L33.7256 55.4484C34.008 55.0732 34.4501 54.8529 34.9207 54.8529H37.9134C38.7356 54.8529 39.4022 55.5194 39.4022 56.3416C39.4022 57.1638 38.7356 57.8304 37.9134 57.8304H35.6676L33.6763 60.4743C35.1164 63.0082 33.2446 66.0184 30.4392 66.0184Z" fill="#3164FA"/>
</svg>
