<svg width="96" height="96" viewBox="0 0 96 96" fill="none" xmlns="http://www.w3.org/2000/svg">
    <path d="M77.7 30.6V65.4C77.7 67.3882 76.0882 69 74.1 69H21.9C19.9118 69 18.3 67.3882 18.3 65.4V30.6M77.7 30.6C77.7 28.6118 76.0882 27 74.1 27H21.9C19.9118 27 18.3 28.6118 18.3 30.6M77.7 30.6V34.8H18.3V30.6M74.1 30.9C74.1 31.7284 73.4284 32.4 72.6 32.4C71.7716 32.4 71.1 31.7284 71.1 30.9C71.1 30.0716 71.7716 29.4 72.6 29.4C73.4284 29.4 74.1 30.0716 74.1 30.9ZM68.1 30.9C68.1 31.7284 67.4284 32.4 66.6 32.4C65.7716 32.4 65.1 31.7284 65.1 30.9C65.1 30.0716 65.7716 29.4 66.6 29.4C67.4284 29.4 68.1 30.0716 68.1 30.9ZM62.1 30.9C62.1 31.7284 61.4284 32.4 60.6 32.4C59.7716 32.4 59.1 31.7284 59.1 30.9C59.1 30.0716 59.7716 29.4 60.6 29.4C61.4284 29.4 62.1 30.0716 62.1 30.9Z" stroke="#001F5C" stroke-width="0.96" stroke-linecap="round" stroke-linejoin="round"/>
    <path d="M32.7 46.1998C35.5167 46.1998 37.8 48.4832 37.8 51.2998C37.8 54.1165 35.5167 56.3998 32.7 56.3998C29.8834 56.3998 27.6 54.1165 27.6 51.2998C27.6 50.6371 27.0628 50.0998 26.4 50.0998C25.7373 50.0998 25.2 50.6371 25.2 51.2998C25.2 55.4419 28.5579 58.7998 32.7 58.7998C36.8421 58.7998 40.2 55.4419 40.2 51.2998C40.2 47.1577 36.8421 43.7998 32.7 43.7998C32.0373 43.7998 31.5 44.3371 31.5 44.9998C31.5 45.6625 32.0373 46.1998 32.7 46.1998Z" fill="#3164FA"/>
    <path d="M45.6 50.3998C44.9373 50.3998 44.4 50.9371 44.4 51.5998C44.4 52.2625 44.9373 52.7998 45.6 52.7998H68.4C69.0628 52.7998 69.6 52.2625 69.6 51.5998C69.6 50.9371 69.0628 50.3998 68.4 50.3998H45.6Z" fill="#3164FA"/>
    <path d="M44.4 55.7998C44.4 55.1371 44.9373 54.5998 45.6 54.5998H49.2C49.8628 54.5998 50.4 55.1371 50.4 55.7998C50.4 56.4625 49.8628 56.9998 49.2 56.9998H45.6C44.9373 56.9998 44.4 56.4625 44.4 55.7998Z" fill="#3164FA"/>
    <path d="M45.6 46.1998C44.9373 46.1998 44.4 46.7371 44.4 47.3998C44.4 48.0625 44.9373 48.5998 45.6 48.5998H68.4C69.0628 48.5998 69.6 48.0625 69.6 47.3998C69.6 46.7371 69.0628 46.1998 68.4 46.1998H45.6Z" fill="#3164FA"/>
</svg>
