<svg width="1440" height="355" viewBox="0 0 1440 355" xmlns="http://www.w3.org/2000/svg">
    <path fill-rule="evenodd" clip-rule="evenodd" d="M473.998 -411.433L956.416 -132.909L897.035 -98.6249L597.518 -271.551L613.078 -280.535L612.75 -281.101L596.864 -271.929L537.485 -306.212L583.061 -332.525L582.734 -333.092L536.831 -306.589L444.307 -360.008L443.98 -359.441L536.176 -306.211L476.795 -271.928L414.291 -308.015L413.964 -307.448L476.141 -271.55L416.763 -237.268L384.274 -256.025L383.947 -255.459L416.109 -236.89L356.728 -202.607L354.256 -204.034L353.929 -203.467L356.073 -202.229L254.155 -143.386L254.483 -142.819L356.728 -201.851L416.107 -167.569L356.727 -133.286L324.24 -152.042L323.913 -151.476L356.073 -132.908L296.692 -98.6241L294.221 -100.05L293.894 -99.4837L296.037 -98.2462L207.529 -47.1459L207.856 -46.5792L296.692 -97.8684L356.072 -63.585L296.691 -29.3012L264.204 -48.0575L263.877 -47.4908L296.036 -28.9234L236.658 5.35907L213.082 -8.25241L212.755 -7.6857L236.003 5.73688L34.5364 122.054L34.8636 122.621L236.658 6.11472L296.035 40.3962L236.658 74.6779L204.17 55.9214L203.843 56.4881L236.003 75.0557L176.622 109.339L174.153 107.914L173.826 108.48L175.968 109.717L64.5525 174.043L64.8796 174.61L176.622 110.095L236.003 144.379L176.624 178.661L144.136 159.905L143.809 160.471L175.969 179.039L116.589 213.323L114.12 211.897L113.793 212.464L115.935 213.7L94.5713 226.035L94.8984 226.601L116.589 214.078L175.968 248.361L116.587 282.644L84.1016 263.889L83.7744 264.455L115.933 283.022L56.5537 317.305L54.0845 315.879L53.7572 316.446L55.8993 317.682L0 349.956L0.327148 350.523L56.5536 318.06L236.002 421.665L176.621 455.948L24.0676 367.871L23.7405 368.438L175.967 456.326L128.447 483.762L128.774 484.328L176.621 456.704L296.036 525.647L274.673 537.981L275 538.548L296.69 526.025L356.07 560.308L304.69 589.973L305.017 590.539L356.724 560.686L416.105 594.97L334.708 641.965L335.035 642.531L416.759 595.347L476.139 629.63L471.167 632.501L471.494 633.068L476.793 630.008L656.243 733.614L652.379 735.844L652.706 736.411L656.897 733.991L713.179 766.486L713.506 765.919L657.552 733.614L716.932 699.33L742.044 713.829L742.371 713.262L717.586 698.953L776.965 664.67L842.738 702.644L843.066 702.078L777.62 664.292L837.001 630.008L896.38 664.291L839.788 696.965L840.116 697.531L897.035 664.669L956.416 698.953L892.517 735.845L892.844 736.412L957.07 699.331L1035.15 744.41L1035.48 743.843L957.724 698.953L1017.1 664.669L1065.17 692.417L1065.49 691.851L1017.76 664.292L1077.14 630.009L1095.18 640.427L1095.51 639.86L1077.79 629.631L1137.17 595.347L1272.51 673.487L1272.84 672.92L1137.83 594.97L1379.51 455.436L1379.18 454.87L1197.21 559.932L1137.83 525.648L1440 351.187L1439.67 350.621L1317.27 421.287L1257.9 387.004L1363.36 326.112L1363.04 325.545L1257.24 386.626L1197.86 352.343L1257.24 318.06L1275.29 328.479L1275.61 327.912L1257.89 317.682L1378.49 248.056L1378.16 247.49L1317.27 282.643L1257.89 248.36L1280.24 235.456L1279.92 234.89L1257.24 247.982L1197.86 213.699L1257.24 179.417L1335.32 224.498L1335.65 223.931L1257.89 179.039L1317.27 144.756L1365.34 172.505L1365.66 171.938L1317.93 144.378L1377.31 110.094L1395.35 120.513L1395.68 119.946L1137.83 -28.927L1208.95 -69.9891L1208.62 -70.5558L1137.17 -29.3048L957.725 -132.909L986.844 -149.721L986.517 -150.287L957.071 -133.287L474.325 -412L473.998 -411.433ZM656.897 733.236L477.447 629.63L536.828 595.347L716.277 698.953L656.897 733.236ZM476.793 629.252L417.414 594.97L476.794 560.686L536.173 594.969L476.793 629.252ZM416.759 594.592L357.379 560.308L416.759 526.025L476.14 560.309L416.759 594.592ZM356.724 559.931L297.344 525.647L356.724 491.364L416.105 525.647L356.724 559.931ZM296.69 525.27L177.276 456.326L236.656 422.043L296.036 456.326L244.656 485.99L244.983 486.557L296.691 456.704L356.07 490.986L296.69 525.27ZM116.587 283.4L57.208 317.682L236.656 421.287L296.035 387.004L236.656 352.722L184.948 382.575L184.621 382.009L236.001 352.344L176.623 318.062L154.932 330.585L154.605 330.018L175.968 317.684L116.587 283.4ZM296.689 387.382L237.31 421.665L296.691 455.948L356.07 421.665L296.689 387.382ZM356.724 422.043L297.345 456.326L356.725 490.609L416.104 456.326L356.724 422.043ZM416.758 456.704L357.379 490.986L416.759 525.27L476.138 490.987L416.758 456.704ZM476.792 491.365L417.413 525.647L476.794 559.931L536.173 525.648L476.792 491.365ZM536.827 526.026L477.448 560.309L536.828 594.591L596.207 560.309L536.827 526.026ZM596.861 560.687L537.482 594.969L596.862 629.253L656.241 594.97L596.861 560.687ZM656.896 595.348L597.517 629.63L716.932 698.575L776.311 664.292L656.896 595.348ZM776.965 663.914L717.584 629.63L776.965 595.347L836.346 629.631L776.965 663.914ZM716.929 629.253L657.55 594.97L716.931 560.686L776.31 594.969L716.929 629.253ZM656.896 594.592L597.516 560.309L656.897 526.025L716.277 560.308L656.896 594.592ZM596.861 559.931L537.482 525.648L596.863 491.365L656.242 525.647L596.861 559.931ZM536.827 525.271L477.447 490.987L536.828 456.703L596.208 490.987L536.827 525.271ZM476.792 490.609L417.412 456.326L476.793 422.042L536.173 456.326L476.792 490.609ZM416.758 455.948L357.378 421.665L416.759 387.382L476.139 421.665L416.758 455.948ZM356.724 421.288L297.344 387.004L356.725 352.721L416.105 387.004L356.724 421.288ZM296.689 386.627L237.31 352.344L296.691 318.06L356.07 352.343L296.689 386.627ZM236.656 351.966L177.277 317.684L236.658 283.4L296.037 317.682L236.656 351.966ZM176.623 317.306L117.241 283.022L176.622 248.738L236.004 283.022L176.623 317.306ZM176.624 179.417L117.244 213.7L176.622 247.983L236.003 213.7L176.624 179.417ZM236.657 214.077L177.277 248.361L236.658 282.644L296.038 248.361L236.657 214.077ZM296.693 248.739L237.312 283.022L296.691 317.305L356.071 283.021L296.693 248.739ZM356.726 283.399L297.346 317.682L356.725 351.965L416.105 317.682L356.726 283.399ZM416.76 318.06L357.379 352.343L416.759 386.626L476.14 352.343L416.76 318.06ZM476.794 352.721L417.414 387.004L476.793 421.287L536.174 387.003L476.794 352.721ZM536.828 387.381L477.448 421.665L536.828 455.948L596.208 421.664L536.828 387.381ZM596.863 422.042L537.482 456.326L596.863 490.609L656.243 456.326L596.863 422.042ZM656.897 456.703L597.517 490.987L656.897 525.27L716.277 490.986L656.897 456.703ZM716.931 491.364L657.551 525.647L716.931 559.931L776.312 525.647L716.931 491.364ZM776.966 526.025L717.586 560.308L776.965 594.591L836.345 560.308L776.966 526.025ZM837 560.685L777.619 594.969L837 629.253L896.381 594.969L837 560.685ZM897.035 595.347L837.655 629.631L897.035 663.914L956.415 629.63L897.035 595.347ZM957.07 630.008L897.689 664.291L957.07 698.575L1016.45 664.292L957.07 630.008ZM1017.1 663.914L957.724 629.63L1017.1 595.347L1076.48 629.631L1017.1 663.914ZM957.069 629.252L897.69 594.969L957.069 560.687L1016.45 594.969L957.069 629.252ZM897.035 594.592L837.654 560.308L897.033 526.025L956.415 560.309L897.035 594.592ZM836.999 559.93L777.62 525.647L837 491.364L896.379 525.647L836.999 559.93ZM776.966 525.269L717.586 490.986L776.965 456.703L836.346 490.987L776.966 525.269ZM716.931 490.608L657.552 456.326L716.931 422.043L776.311 456.326L716.931 490.608ZM656.898 455.948L597.517 421.664L656.897 387.382L716.277 421.665L656.898 455.948ZM596.863 421.287L537.482 387.003L596.862 352.721L656.242 387.004L596.863 421.287ZM536.828 386.626L477.449 352.343L536.828 318.06L596.208 352.343L536.828 386.626ZM476.794 351.965L417.414 317.682L476.794 283.399L536.174 317.682L476.794 351.965ZM416.759 317.304L357.38 283.021L416.76 248.738L476.139 283.021L416.759 317.304ZM356.726 282.643L297.347 248.361L356.727 214.078L416.105 248.361L356.726 282.643ZM296.693 247.983L237.312 213.7L296.691 179.417L356.072 213.701L296.693 247.983ZM236.657 213.322L177.278 179.039L236.658 144.756L296.037 179.039L236.657 213.322ZM236.658 75.4335L177.277 109.717L236.658 144.001L296.039 109.717L236.658 75.4335ZM296.693 110.095L237.312 144.379L296.691 178.661L356.072 144.378L296.693 110.095ZM356.726 144.755L297.345 179.039L356.727 213.323L416.108 179.039L356.726 144.755ZM416.762 179.417L357.381 213.701L416.76 247.983L476.141 213.699L416.762 179.417ZM476.795 214.077L417.414 248.361L476.793 282.643L536.174 248.36L476.795 214.077ZM536.829 248.738L477.448 283.021L536.828 317.304L596.209 283.021L536.829 248.738ZM596.863 283.399L537.482 317.682L596.862 351.965L656.243 317.681L596.863 283.399ZM656.897 318.059L597.516 352.343L656.897 386.626L716.277 352.342L656.897 318.059ZM716.932 352.72L657.551 387.004L716.932 421.287L776.312 387.004L716.932 352.72ZM776.967 387.381L717.586 421.665L776.965 455.948L836.346 421.664L776.967 387.381ZM837.001 422.042L777.62 456.326L837 490.609L896.381 456.325L837.001 422.042ZM897.035 456.703L837.654 490.987L897.033 525.269L956.414 490.986L897.035 456.703ZM957.069 491.363L897.688 525.647L957.069 559.931L1016.45 525.647L957.069 491.363ZM1017.1 526.025L957.724 560.309L1017.1 594.592L1076.48 560.308L1017.1 526.025ZM1077.14 560.686L1017.76 594.97L1077.14 629.253L1136.52 594.97L1077.14 560.686ZM1137.17 594.592L1077.79 560.308L1137.17 526.026L1196.55 560.31L1137.17 594.592ZM1077.14 559.93L1017.76 525.647L1077.14 491.365L1136.52 525.648L1077.14 559.93ZM1017.1 525.269L957.723 490.986L1017.1 456.704L1076.48 490.987L1017.1 525.269ZM957.069 490.608L897.69 456.325L957.068 422.043L1016.45 456.326L957.069 490.608ZM897.035 455.947L837.655 421.664L897.033 387.382L956.413 421.665L897.035 455.947ZM837.001 421.286L777.621 387.004L836.999 352.722L896.378 387.005L837.001 421.286ZM776.967 386.626L717.586 352.342L776.964 318.061L836.345 352.344L776.967 386.626ZM716.932 351.965L657.552 317.681L716.929 283.4L776.31 317.683L716.932 351.965ZM656.897 317.304L597.518 283.021L656.896 248.739L716.275 283.022L656.897 317.304ZM596.863 282.643L537.483 248.36L596.861 214.078L656.241 248.361L596.863 282.643ZM536.829 247.982L477.449 213.699L536.827 179.418L596.206 213.7L536.829 247.982ZM476.795 213.321L417.416 179.039L476.794 144.757L536.173 179.04L476.795 213.321ZM416.762 178.661L357.381 144.378L416.758 110.096L476.14 144.38L416.762 178.661ZM356.726 144L297.347 109.717L356.725 75.4355L416.104 109.718L356.726 144ZM296.693 109.339L237.312 75.0557L296.689 40.774L356.07 75.0577L296.693 109.339ZM296.691 -28.5455L237.312 5.73694L296.689 40.0184L356.068 5.73596L296.691 -28.5455ZM356.723 6.1138L297.344 40.3962L356.725 74.6799L416.104 40.3975L356.723 6.1138ZM416.758 40.7753L357.379 75.0577L416.758 109.34L476.137 75.0578L416.758 40.7753ZM476.791 75.4356L417.413 109.718L476.794 144.002L536.173 109.719L476.791 75.4356ZM536.827 110.097L477.448 144.38L536.827 178.662L596.206 144.38L536.827 110.097ZM596.86 144.757L537.481 179.04L596.861 213.322L656.239 179.04L596.86 144.757ZM656.894 179.418L597.515 213.7L656.895 247.983L716.274 213.701L656.894 179.418ZM716.928 214.079L657.55 248.361L716.929 282.644L776.308 248.362L716.928 214.079ZM776.962 248.74L717.584 283.022L776.964 317.305L836.342 283.023L776.962 248.74ZM836.997 283.401L777.618 317.683L836.999 351.966L896.377 317.684L836.997 283.401ZM897.032 318.062L837.653 352.344L897.033 386.627L956.411 352.345L897.032 318.062ZM957.066 352.722L897.687 387.005L957.068 421.288L1016.45 387.006L957.066 352.722ZM1017.1 387.383L957.722 421.666L1017.1 455.948L1076.48 421.666L1017.1 387.383ZM1077.13 422.044L1017.76 456.326L1077.14 490.61L1136.51 456.328L1077.13 422.044ZM1137.17 456.706L1077.79 490.988L1137.17 525.27L1196.55 490.988L1137.17 456.706ZM1197.2 490.611L1137.82 456.328L1257.24 387.382L1316.62 421.665L1197.2 490.611ZM1137.17 455.95L1077.79 421.666L1137.17 387.382L1196.55 421.666L1137.17 455.95ZM1077.13 421.288L1017.75 387.006L1077.14 352.722L1136.51 387.004L1077.13 421.288ZM1017.1 386.628L957.72 352.345L1017.1 318.061L1076.48 352.344L1017.1 386.628ZM957.066 351.967L897.686 317.684L957.068 283.4L1016.45 317.683L957.066 351.967ZM897.032 317.306L837.651 283.023L897.032 248.739L956.413 283.022L897.032 317.306ZM836.997 282.645L777.617 248.362L836.998 214.078L896.378 248.361L836.997 282.645ZM776.962 247.984L717.583 213.701L776.964 179.417L836.344 213.7L776.962 247.984ZM716.928 213.323L657.548 179.04L716.93 144.756L776.31 179.039L716.928 213.323ZM656.894 178.662L597.514 144.38L656.896 110.096L716.275 144.378L656.894 178.662ZM596.86 144.002L537.481 109.719L596.863 75.4356L656.241 109.718L596.86 144.002ZM536.827 109.342L477.446 75.0578L536.827 40.774L596.208 75.0578L536.827 109.342ZM476.791 74.68L417.412 40.3975L476.794 6.11362L536.173 40.3962L476.791 74.68ZM416.758 40.0197L357.377 5.73599L416.758 -28.5479L476.139 5.73584L416.758 40.0197ZM356.723 5.35815L297.345 -28.9233L356.727 -63.2072L416.104 -28.9257L356.723 5.35815ZM356.727 -132.53L297.346 -98.2462L356.727 -63.9628L416.108 -98.2467L356.727 -132.53ZM416.762 -97.8689L357.381 -63.585L416.758 -29.3035L476.14 -63.5874L416.762 -97.8689ZM476.794 -63.2096L417.413 -28.9257L476.794 5.35803L536.175 -28.9259L476.794 -63.2096ZM536.829 -28.5481L477.448 5.73581L536.827 40.0184L596.208 5.7345L536.829 -28.5481ZM596.863 6.1123L537.481 40.3962L596.863 74.68L656.244 40.3961L596.863 6.1123ZM656.898 40.7739L597.517 75.0578L656.896 109.34L716.277 75.0562L656.898 40.7739ZM716.931 75.4341L657.55 109.718L716.929 144.001L776.311 109.717L716.931 75.4341ZM776.965 110.095L717.584 144.378L776.964 178.662L836.345 144.378L776.965 110.095ZM837 144.756L777.618 179.039L836.998 213.322L896.379 179.038L837 144.756ZM897.034 179.416L837.652 213.7L897.033 247.983L956.414 213.699L897.034 179.416ZM957.068 214.077L897.687 248.361L957.068 282.644L1016.45 248.361L957.068 214.077ZM1017.1 248.738L957.722 283.022L1017.1 317.305L1076.48 283.021L1017.1 248.738ZM1077.14 283.399L1017.76 317.683L1077.14 351.966L1136.52 317.682L1077.14 283.399ZM1137.17 318.06L1077.79 352.344L1137.17 386.626L1196.55 352.343L1137.17 318.06ZM1197.2 352.72L1137.82 387.004L1197.21 421.288L1256.59 387.004L1197.2 352.72ZM1197.2 351.965L1137.83 317.682L1197.21 283.399L1256.58 317.682L1197.2 351.965ZM1137.17 317.304L1077.79 283.021L1137.17 248.739L1196.55 283.022L1137.17 317.304ZM1077.14 282.643L1017.76 248.361L1077.14 214.078L1136.52 248.361L1077.14 282.643ZM1017.1 247.983L957.723 213.699L1017.1 179.417L1076.48 213.7L1017.1 247.983ZM957.068 213.322L897.688 179.038L957.067 144.756L1016.45 179.039L957.068 213.322ZM897.034 178.661L837.654 144.378L897.034 110.095L956.413 144.378L897.034 178.661ZM837 144L777.62 109.717L836.999 75.434L896.379 109.717L837 144ZM776.965 109.339L717.586 75.0563L776.965 40.7735L836.345 75.0562L776.965 109.339ZM716.931 74.6784L657.553 40.3961L716.932 6.11331L776.311 40.3957L716.931 74.6784ZM656.898 40.0183L597.517 5.7345L656.897 -28.5483L716.278 5.7355L656.898 40.0183ZM596.863 5.35672L537.484 -28.9259L596.863 -63.2087L656.242 -28.9261L596.863 5.35672ZM536.829 -29.3037L477.448 -63.5873L536.828 -97.8701L596.209 -63.5865L536.829 -29.3037ZM476.794 -63.9652L417.417 -98.2467L476.796 -132.529L536.173 -98.248L476.794 -63.9652ZM416.762 -98.6245L357.382 -132.908L416.761 -167.191L476.142 -132.907L416.762 -98.6245ZM416.763 -236.512L357.382 -202.229L416.761 -167.946L476.142 -202.23L416.763 -236.512ZM476.796 -201.852L417.415 -167.569L476.796 -133.285L536.177 -167.569L476.796 -201.852ZM536.831 -167.191L477.451 -132.907L536.828 -98.6258L596.208 -132.909L536.831 -167.191ZM596.863 -132.532L537.482 -98.248L596.863 -63.9643L656.244 -98.2479L596.863 -132.532ZM656.898 -97.8701L597.518 -63.5865L656.897 -29.3039L716.277 -63.5874L656.898 -97.8701ZM716.932 -63.2097L657.551 -28.9261L716.932 5.3577L776.313 -28.9259L716.932 -63.2097ZM776.967 -28.5481L717.587 5.7355L776.965 40.0179L836.346 5.73428L776.967 -28.5481ZM837 6.11212L777.62 40.3957L836.999 74.6784L896.38 40.3948L837 6.11212ZM897.034 40.7726L837.653 75.0562L897.034 109.339L956.414 75.0558L897.034 40.7726ZM957.069 75.4337L897.688 109.717L957.068 144L1016.45 109.716L957.069 75.4337ZM1017.1 110.094L957.722 144.378L1017.1 178.661L1076.48 144.377L1017.1 110.094ZM1077.14 144.755L1017.76 179.039L1077.14 213.322L1136.52 179.039L1077.14 144.755ZM1137.17 179.417L1077.79 213.7L1137.17 247.983L1196.55 213.699L1137.17 179.417ZM1197.21 214.077L1137.83 248.361L1197.21 282.644L1256.59 248.36L1197.21 214.077ZM1257.24 248.738L1197.86 283.022L1257.24 317.304L1316.62 283.021L1257.24 248.738ZM1197.21 213.321L1137.83 179.039L1197.2 144.757L1256.58 179.039L1197.21 213.321ZM1137.17 178.661L1077.79 144.377L1137.17 110.095L1196.55 144.379L1137.17 178.661ZM1077.14 144L1017.76 109.716L1077.14 75.4344L1136.52 109.718L1077.14 144ZM1017.1 109.339L957.723 75.0558L1017.1 40.7738L1076.48 75.0565L1017.1 109.339ZM957.069 74.678L897.689 40.3948L957.067 6.11276L1016.45 40.396L957.069 74.678ZM897.034 40.017L837.655 5.73428L897.033 -28.5478L956.412 5.73492L897.034 40.017ZM837 5.35645L777.622 -28.9259L837 -63.2079L896.379 -28.9256L837 5.35645ZM776.967 -29.3037L717.586 -63.5875L776.964 -97.8695L836.346 -63.5857L776.967 -29.3037ZM716.932 -63.9653L657.553 -98.2479L703.129 -124.562L702.802 -125.128L656.898 -98.6257L597.517 -132.909L656.895 -167.191L776.31 -98.2473L716.932 -63.9653ZM596.863 -133.287L537.486 -167.569L596.864 -201.851L656.241 -167.569L596.863 -133.287ZM536.831 -167.947L477.451 -202.23L536.829 -236.512L596.209 -202.229L536.831 -167.947ZM476.796 -202.608L417.417 -236.89L476.795 -271.172L536.174 -236.89L476.796 -202.608ZM536.83 -305.834L477.45 -271.55L536.829 -237.268L596.209 -271.551L536.83 -305.834ZM596.864 -271.173L537.483 -236.89L596.864 -202.606L642.768 -229.109L643.095 -228.542L597.518 -202.229L656.896 -167.947L672.784 -177.12L673.111 -176.553L657.55 -167.569L776.964 -98.6251L811.552 -118.594L811.879 -118.027L777.619 -98.2473L837 -63.9636L896.381 -98.2471L596.864 -271.173ZM897.035 -97.8693L837.654 -63.5858L897.033 -29.3034L956.414 -63.5869L897.035 -97.8693ZM957.068 -63.2091L897.688 -28.9256L957.067 5.35709L1016.45 -28.9264L957.068 -63.2091ZM1017.1 -28.5486L957.721 5.73492L1017.1 40.0182L1076.48 5.73468L1017.1 -28.5486ZM1077.14 6.11249L1017.76 40.396L1077.14 74.6787L1136.52 40.3953L1077.14 6.11249ZM1137.17 40.7731L1077.79 75.0565L1137.17 109.34L1196.55 75.0563L1137.17 40.7731ZM1197.2 75.4341L1137.82 109.718L1197.2 144.001L1256.59 109.718L1197.2 75.4341ZM1257.24 110.095L1197.86 144.379L1257.24 178.662L1316.62 144.378L1257.24 110.095ZM1317.27 144L1257.89 109.718L1263.05 106.739L1262.73 106.172L1257.24 109.34L1197.86 75.0563L1223.84 60.0567L1223.51 59.49L1197.2 74.6784L1137.38 40.1359L1137.27 39.9582L1137.17 40.0174L1077.79 5.73468L1137.17 -28.5492L1376.66 109.716L1317.27 144ZM1077.14 5.35687L1017.76 -28.9264L1018.68 -29.4582L1018.35 -30.0249L1017.1 -29.3042L957.723 -63.5869L1016.86 -97.7301L1016.62 -98.1521L1136.52 -28.927L1077.14 5.35687ZM957.068 -63.9647L897.689 -98.2471L957.071 -132.531L1016.45 -98.2486L957.068 -63.9647Z" fill="url(#paint0_radial_7383_670)"/>
    <defs>
        <radialGradient id="paint0_radial_7383_670" cx="0" cy="0" r="1" gradientUnits="userSpaceOnUse" gradientTransform="translate(776.781 121.319) rotate(90) scale(437.541 534.636)">
            <stop stop-color="#93B2FF"/>
            <stop offset="1" stop-color="#93B2FF" stop-opacity="0"/>
        </radialGradient>
    </defs>
</svg>
