<svg xmlns="http://www.w3.org/2000/svg" width="40" height="40" viewBox="0 0 40 40" fill="none">
    <path fill-rule="evenodd" clip-rule="evenodd" d="M16.7045 2.3345L14.6595 0.108116C17.7381 -0.298858 25.8612 0.223027 33.7248 5.56635C33.827 6.30435 33.805 7.04 33.805 7.04L34.0106 7.1542C34.3863 7.66977 34.8177 8.63815 35.075 9.83726C35.3317 11.033 35.4033 12.4041 35.1065 13.7098C34.8064 15.0302 34.2365 16.1211 33.6781 16.9192C33.1066 17.736 32.5829 18.1967 32.4172 18.2962L32.3646 18.3277C31.3938 18.5087 30.0529 19.2207 29.5081 21.0128C27.9141 22.0054 25.2208 23.0925 21.5595 23.0925C18.3146 23.0925 15.0113 22.1533 12.5348 20.3442C10.0734 18.5461 8.42704 15.8925 8.42704 12.3958C8.42704 9.62205 9.67016 7.45242 11.2582 5.84929C12.8588 4.23348 15.0473 2.92642 16.3003 2.49738L16.6106 2.39111L16.5922 2.37528L16.7045 2.3345ZM30.2389 6.6972C29.6198 7.38954 29.0409 7.72171 28.8757 7.81178C25.2606 6.98618 23.9582 4.97823 23.9582 4.97823C27.3681 4.95564 30.4458 5.82642 32.6975 7.29946C32.6975 7.29946 31.4786 6.87537 30.2389 6.6972Z" fill="white"/>
    <path d="M13.4447 2.71336C5.77637 4.54398 0 11.5625 0 20.0053C0 30.9537 9.2542 40 20.6698 40C29.1942 40 36.2899 34.788 40 27.8147C35.1736 28.9593 29.4315 26.9937 29.1477 22.6509C29.1565 22.617 29.1652 22.5828 29.1738 22.5482C27.3727 23.4649 24.8025 24.2675 21.5595 24.2675C18.1079 24.2675 14.5512 23.2723 11.8417 21.293C9.11742 19.3029 7.25204 16.3145 7.25204 12.3958C7.25204 9.23718 8.67675 6.78566 10.4234 5.02238C11.238 4.20775 12.2919 3.42999 13.26 2.82691C13.3219 2.7884 13.3835 2.75053 13.4447 2.71336Z" fill="white"/>
    <path d="M33.9493 18.4689C34.3019 18.6131 34.5175 18.8027 34.6303 18.9223C34.9014 19.2095 35.5791 20.0714 34.7659 21.4359C36.4601 21.1487 39.1064 19.425 39.3065 15.044C39.4394 12.1317 37.9168 10.0066 35.9081 8.42703C36.0294 8.79277 36.1365 9.18348 36.2239 9.59069C36.5072 10.9109 36.5956 12.4599 36.2523 13.9702C35.9124 15.4657 35.2691 16.6948 34.6408 17.5928C34.4081 17.9254 34.1723 18.2196 33.9493 18.4689Z" fill="white"/>
</svg>
