<svg xmlns="http://www.w3.org/2000/svg" width="162" height="40" viewBox="0 0 162 40" fill="none">
    <path fill-rule="evenodd" clip-rule="evenodd" d="M16.7045 2.3345L14.6595 0.108116C17.7381 -0.298858 25.8612 0.223027 33.7248 5.56635C33.827 6.30435 33.805 7.04 33.805 7.04L34.0106 7.1542C34.3863 7.66977 34.8177 8.63815 35.075 9.83726C35.3317 11.033 35.4033 12.4041 35.1065 13.7098C34.8064 15.0302 34.2365 16.1211 33.6781 16.9192C33.1066 17.736 32.5829 18.1967 32.4172 18.2962L32.3646 18.3277C31.3938 18.5087 30.0529 19.2207 29.5081 21.0128C27.9141 22.0054 25.2208 23.0925 21.5595 23.0925C18.3146 23.0925 15.0113 22.1533 12.5348 20.3442C10.0734 18.5461 8.42704 15.8925 8.42704 12.3958C8.42704 9.62205 9.67016 7.45242 11.2582 5.84929C12.8588 4.23348 15.0473 2.92642 16.3003 2.49738L16.6106 2.39111L16.5922 2.37528L16.7045 2.3345ZM30.2389 6.6972C29.6198 7.38954 29.0409 7.72171 28.8757 7.81178C25.2606 6.98618 23.9582 4.97823 23.9582 4.97823C27.3681 4.95564 30.4458 5.82642 32.6975 7.29946C32.6975 7.29946 31.4786 6.87537 30.2389 6.6972Z" fill="white"/>
    <path d="M13.4447 2.71336C5.77637 4.54398 0 11.5625 0 20.0053C0 30.9537 9.2542 40 20.6698 40C29.1942 40 36.2899 34.788 40 27.8147C35.1736 28.9593 29.4315 26.9937 29.1477 22.6509C29.1565 22.617 29.1652 22.5828 29.1738 22.5482C27.3727 23.4649 24.8025 24.2675 21.5595 24.2675C18.1079 24.2675 14.5512 23.2723 11.8417 21.293C9.11742 19.3029 7.25204 16.3145 7.25204 12.3958C7.25204 9.23718 8.67675 6.78566 10.4234 5.02238L10.424 5.02175C11.2387 4.20712 12.2919 3.42999 13.26 2.82691C13.3219 2.7884 13.3835 2.75053 13.4447 2.71336Z" fill="white"/>
    <path d="M7.43954 12.3958C7.43954 9.29862 8.83525 6.89208 10.5566 5.15433C11.5526 4.15834 12.9181 3.21313 14.0397 2.58255C14.0397 2.58255 14.0397 2.58255 14.0397 2.58255C12.9181 3.21313 11.5526 4.15834 10.5566 5.15433C8.83525 6.89208 7.43954 9.29862 7.43954 12.3958Z" fill="white"/>
    <path d="M33.9493 18.4689C34.3019 18.6131 34.5175 18.8027 34.6303 18.9223C34.9014 19.2095 35.5791 20.0714 34.7659 21.4359C36.4601 21.1487 39.1064 19.425 39.3065 15.044C39.4394 12.1317 37.9168 10.0066 35.9081 8.42703C36.0294 8.79277 36.1365 9.18348 36.2239 9.59069C36.5072 10.9109 36.5956 12.4599 36.2523 13.9702C35.9124 15.4657 35.2691 16.6948 34.6408 17.5928C34.4081 17.9254 34.1723 18.2196 33.9493 18.4689Z" fill="white"/>
    <path d="M115.27 10.263C118.198 10.263 120.038 11.091 121.781 12.5765L119.893 14.8412C118.586 13.721 117.279 13.0391 115.149 13.0391C112.051 13.0391 109.654 15.7666 109.654 19.0298L109.656 19.2326C109.722 22.6606 112.005 25.1666 115.415 25.1666C117.037 25.1666 118.465 24.6552 119.506 23.8759V20.7101L122.386 18.0801V25.2397C120.692 26.6764 118.32 27.8941 115.318 27.8941C110.017 27.8941 106.532 24.0951 106.532 19.1272L106.533 18.9231C106.611 14.2181 110.194 10.263 115.27 10.263ZM134.439 10.263C139.642 10.263 143.273 14.2324 143.273 19.0298L143.272 19.2322C143.194 23.938 139.538 27.8941 134.39 27.8941C129.186 27.8941 125.556 23.9246 125.556 19.1272L125.557 18.9248C125.635 14.219 129.291 10.263 134.439 10.263ZM59.4052 10.4335L66.8601 27.6018L63.8295 27.6017L57.9772 14.0132L52.1676 27.6017L49.1911 27.6018L56.646 10.4335H59.4052ZM97.803 10.4335L105.258 27.6018L102.227 27.6017L96.3749 14.0132L90.5653 27.6017L87.5888 27.6018L95.0437 10.4335H97.803ZM149.245 10.5552L158.321 22.3417V10.5552H161.25V27.6018H158.757L149.414 15.4744V27.6018H146.485V10.5552H149.245ZM134.39 13.0391C131.026 13.0391 128.678 15.7179 128.678 19.0298L128.679 19.2242C128.748 22.4701 131.1 25.1179 134.439 25.1179C137.803 25.1179 140.151 22.4391 140.151 19.1272L140.149 18.9328C140.081 15.687 137.729 13.0391 134.39 13.0391Z" fill="white"/>
    <path d="M78.0175 10.263C80.1516 10.263 81.8249 10.9066 82.9162 11.9957C83.8135 12.9611 84.3228 14.2236 84.3228 15.7336L84.3222 15.8755C84.2871 18.6054 82.6962 20.271 80.4496 20.9842L80.2971 21.0309L84.8806 27.5906H81.3399L77.1687 21.5507L74.9792 21.5502L76.5157 18.852L77.7992 18.8525C79.8848 18.8525 81.2293 17.7887 81.2893 16.0768L81.2914 15.9563L81.2909 15.8408C81.261 14.0024 79.9799 13.0354 77.775 13.0354H73.434L73.4336 18.3918L73.4312 18.3915V22.2556L73.4336 22.2543L73.434 27.5906H70.4512V10.263H78.0175Z" fill="white"/>
</svg>
