<svg xmlns="http://www.w3.org/2000/svg" width="40" height="40" fill="none"><path fill="#fff" fill-rule="evenodd" d="M16.704 2.334 14.66.108c3.08-.407 11.202.115 19.066 5.458.102.738.08 1.474.08 1.474l.206.114c.375.516.807 1.484 1.064 2.683.257 1.196.328 2.567.031 3.873a9.202 9.202 0 0 1-1.428 3.21c-.571.816-1.095 1.277-1.26 1.376l-.053.032c-.971.18-2.312.893-2.857 2.685-1.594.992-4.287 2.08-7.948 2.08-3.245 0-6.549-.94-9.025-2.749-2.462-1.798-4.108-4.452-4.108-7.948 0-2.774 1.243-4.944 2.831-6.547 1.6-1.616 3.79-2.923 5.042-3.352l.31-.106-.018-.016.113-.04ZM30.24 6.697c-.62.693-1.198 1.025-1.363 1.115-3.615-.826-4.918-2.834-4.918-2.834 3.41-.022 6.488.848 8.74 2.321 0 0-1.22-.424-2.46-.602Z" clip-rule="evenodd"/><path fill="#fff" d="M13.445 2.713C5.776 4.544 0 11.563 0 20.005 0 30.954 9.254 40 20.67 40c8.524 0 15.62-5.212 19.33-12.185-4.826 1.144-10.569-.821-10.852-5.164l.026-.103c-1.801.917-4.372 1.72-7.614 1.72-3.452 0-7.009-.996-9.718-2.975-2.725-1.99-4.59-4.979-4.59-8.897 0-3.159 1.425-5.61 3.171-7.374.815-.814 1.869-1.592 2.837-2.195l.185-.114ZM33.95 18.469c.352.144.567.334.68.453.271.287.95 1.15.136 2.514 1.694-.287 4.34-2.011 4.54-6.392.133-2.912-1.39-5.037-3.398-6.617.121.366.228.756.316 1.164.283 1.32.372 2.869.028 4.38a10.377 10.377 0 0 1-1.611 3.622 9.425 9.425 0 0 1-.692.876Z"/></svg>
