<svg xmlns="http://www.w3.org/2000/svg" width="97" height="96" fill="none"><path fill="#001F5C" d="M56.055 38.183a.48.48 0 0 1-.48.48h-6.617a.48.48 0 1 1 0-.96h6.617a.48.48 0 0 1 .48.48ZM64.839 45.258a.48.48 0 1 0 0-.96H48.957a.48.48 0 1 0 0 .96H64.84ZM65.319 51.373a.48.48 0 0 1-.48.48H48.958a.48.48 0 1 1 0-.96h15.881a.48.48 0 0 1 .48.48ZM64.839 58.447a.48.48 0 1 0 0-.96h-6.617a.48.48 0 1 0 0 .96h6.617Z"/><path fill="#001F5C" fill-rule="evenodd" d="M43.54 28.95a1.2 1.2 0 0 0-1.2 1.2V66a1.2 1.2 0 0 0 1.2 1.2h26.716a1.2 1.2 0 0 0 1.2-1.2V30.15a1.2 1.2 0 0 0-1.2-1.2H43.54Zm26.716.96H43.54a.24.24 0 0 0-.24.24V66c0 .132.107.24.24.24h26.716a.24.24 0 0 0 .24-.24V30.15a.24.24 0 0 0-.24-.24Z" clip-rule="evenodd"/><path fill="#3164FA" d="M33.678 34.344c1.432-2.525-.421-5.544-3.239-5.544a3.728 3.728 0 0 0-3.734 3.722 3.72 3.72 0 0 0 4.589 3.614l2.432 3.234c.282.375.724.596 1.195.596h2.992a1.489 1.489 0 0 0 0-2.978h-2.245l-1.99-2.644ZM28.945 51.13a3.728 3.728 0 0 1-3.734-3.72 3.728 3.728 0 0 1 3.734-3.723c1.532 0 2.843.92 3.42 2.233h5.548a1.489 1.489 0 1 1 0 2.978h-5.548a3.732 3.732 0 0 1-3.42 2.233ZM30.44 66.018a3.728 3.728 0 0 1-3.735-3.721 3.72 3.72 0 0 1 4.587-3.615l2.434-3.234a1.495 1.495 0 0 1 1.195-.595h2.992a1.489 1.489 0 1 1 0 2.977h-2.245l-1.992 2.644c1.44 2.534-.431 5.544-3.237 5.544Z"/></svg>
