<svg xmlns="http://www.w3.org/2000/svg" width="96" height="96" fill="none"><path stroke="#001F5C" stroke-linecap="round" stroke-linejoin="round" stroke-width=".96" d="M77.7 30.6v34.8a3.6 3.6 0 0 1-3.6 3.6H21.9a3.6 3.6 0 0 1-3.6-3.6V30.6m59.4 0a3.6 3.6 0 0 0-3.6-3.6H21.9a3.6 3.6 0 0 0-3.6 3.6m59.4 0v4.2H18.3v-4.2m55.8.3a1.5 1.5 0 1 1-3 0 1.5 1.5 0 0 1 3 0Zm-6 0a1.5 1.5 0 1 1-3 0 1.5 1.5 0 0 1 3 0Zm-6 0a1.5 1.5 0 1 1-3 0 1.5 1.5 0 0 1 3 0Z"/><path fill="#3164FA" d="M32.7 46.2a5.1 5.1 0 1 1-5.1 5.1 1.2 1.2 0 1 0-2.4 0 7.5 7.5 0 1 0 7.5-7.5 1.2 1.2 0 0 0 0 2.4ZM45.6 50.4a1.2 1.2 0 0 0 0 2.4h22.8a1.2 1.2 0 1 0 0-2.4H45.6ZM44.4 55.8a1.2 1.2 0 0 1 1.2-1.2h3.6a1.2 1.2 0 1 1 0 2.4h-3.6a1.2 1.2 0 0 1-1.2-1.2ZM45.6 46.2a1.2 1.2 0 0 0 0 2.4h22.8a1.2 1.2 0 1 0 0-2.4H45.6Z"/></svg>
