<svg width="95" height="95" viewBox="0 0 95 95" fill="none" xmlns="http://www.w3.org/2000/svg">
<path d="M47.0742 0C52.3601 0.000340725 56.6455 4.28634 56.6455 9.57227V15.6328C56.6453 19.3087 54.5714 22.4982 51.5312 24.1016V28.3525L60.9561 31.4561L61.249 31.5586C63.6805 32.4618 65.4887 34.4655 66.1826 36.8887C67.7606 33.77 70.9937 31.6309 74.7275 31.6309C80.0134 31.6313 84.2988 35.9173 84.2988 41.2031V47.2637C84.2988 50.9401 82.2244 54.1301 79.1836 55.7334V59.9834L88.6104 63.0859H88.6113C91.9146 64.1746 94.1473 67.2615 94.1475 70.7402V72.8955C94.1473 73.1602 93.9326 73.3746 93.668 73.375C93.403 73.375 93.1876 73.1605 93.1875 72.8955V70.7402C93.1874 67.7715 91.3412 65.1268 88.5801 64.0928L88.3105 63.998L79.1367 60.9795C78.8232 63.1344 76.9684 64.789 74.7266 64.7891C72.4846 64.789 70.629 63.1344 70.3154 60.9795L61.1436 63.998C58.7411 64.7902 56.9818 66.7801 56.4404 69.1768L60.9561 70.6631C64.2606 71.7505 66.4941 74.8366 66.4941 78.3154V80.877H85.2314V76.4316C85.2314 76.1667 85.447 75.9513 85.7119 75.9512C85.977 75.9512 86.1924 76.1665 86.1924 76.4316V80.877H93.1875V79.4648C93.1875 79.1998 93.402 78.9845 93.667 78.9844C93.9321 78.9844 94.1475 79.1997 94.1475 79.4648V81.3564C94.1472 81.6213 93.9319 81.8369 93.667 81.8369H66.4941V85.2236C66.4939 85.4886 66.2786 85.7031 66.0137 85.7031C65.749 85.7028 65.5344 85.4884 65.5342 85.2236V78.3154C65.5342 75.2512 63.5668 72.5331 60.6562 71.5752H60.6553L51.4834 68.5557C51.1696 70.7104 49.315 72.3652 47.0732 72.3652C44.8315 72.365 42.9758 70.7104 42.6621 68.5557L38.4355 69.9463C38.4291 69.9488 38.4226 69.9509 38.416 69.9531L33.4902 71.5742C30.5798 72.5325 28.6133 75.2513 28.6133 78.3154V93.1875H35.6074V84.0078C35.6075 83.7428 35.8229 83.5274 36.0879 83.5273C36.3529 83.5273 36.5683 83.7428 36.5684 84.0078V93.1875H57.5791V84.0078C57.5792 83.7428 57.7945 83.5273 58.0596 83.5273C58.3245 83.5275 58.54 83.7429 58.54 84.0078V93.1875H65.5342V91.7891C65.5342 91.5242 65.7489 91.3089 66.0137 91.3086C66.2787 91.3086 66.4941 91.524 66.4941 91.7891V93.667C66.4941 93.9321 66.2788 94.1475 66.0137 94.1475H28.1328C27.8679 94.1473 27.6523 93.932 27.6523 93.667V81.8369H0.480469C0.215536 81.8369 0.000264517 81.6213 0 81.3564V79.4648C0 79.1997 0.215373 78.9844 0.480469 78.9844C0.745355 78.9846 0.960938 79.1999 0.960938 79.4648V80.877H7.9541V76.4316C7.9541 76.1667 8.16969 75.9514 8.43457 75.9512C8.69967 75.9512 8.91504 76.1665 8.91504 76.4316V80.877H27.6523V78.3154C27.6524 74.8367 29.8862 71.7509 33.1904 70.6631L37.7051 69.1768C37.1636 66.7804 35.4062 64.7902 33.0039 63.998L23.8301 60.9795C23.5166 63.1343 21.6627 64.7889 19.4209 64.7891C17.179 64.789 15.3224 63.1345 15.0088 60.9795L5.83691 63.9971C2.92712 64.956 0.961063 67.6759 0.960938 70.7402V72.8955C0.960806 73.1603 0.745273 73.3748 0.480469 73.375C0.215454 73.375 0.000131769 73.1605 0 72.8955V70.7402C0.000125716 67.2613 2.23354 64.1745 5.53711 63.0859L14.9629 59.9844V55.7324C11.9225 54.129 9.84867 50.9396 9.84863 47.2637V41.2031C9.84863 35.917 14.1345 31.6309 19.4209 31.6309C23.1548 31.631 26.3864 33.7714 27.9639 36.8906C28.685 34.3701 30.6119 32.3033 33.1914 31.4561L42.6152 28.3525V24.1016C39.5752 22.4981 37.5021 19.3084 37.502 15.6328V9.57227C37.502 4.28613 41.7879 0 47.0742 0ZM50.5713 63.748C49.4877 64.1738 48.3089 64.4111 47.0742 64.4111C45.8394 64.4111 44.66 64.1738 43.5762 63.748V67.9082C43.5763 69.8396 45.1418 71.405 47.0732 71.4053C49.0048 71.4053 50.5712 69.8397 50.5713 67.9082V63.748ZM56.6455 54.8398C56.6454 58.5157 54.5714 61.7052 51.5312 63.3086V67.5605L55.5234 68.875C56.1613 66.1947 58.1453 63.9753 60.8428 63.0859L70.2686 59.9844V55.7324C68.0774 54.5766 66.3893 52.5975 65.6172 50.2051H56.6455V54.8398ZM28.5293 50.2051C27.7571 52.5979 26.0694 54.5777 23.8779 55.7334V59.9834L33.3037 63.0859C36.0009 63.9752 37.9838 66.1943 38.6221 68.874L42.6152 67.5605V63.3086C39.5752 61.7051 37.5021 58.5155 37.502 54.8398V50.2051H28.5293ZM22.918 56.1729C21.8344 56.5985 20.6554 56.8349 19.4209 56.835C18.1864 56.835 17.0074 56.5984 15.9238 56.1729V60.332C15.924 62.2635 17.4893 63.829 19.4209 63.8291C21.3523 63.8289 22.9178 62.2635 22.918 60.332V56.1729ZM71.2295 60.332C71.2296 62.2635 72.7951 63.829 74.7266 63.8291C76.6581 63.829 78.2235 62.2635 78.2236 60.332V56.1729C77.1403 56.5983 75.9618 56.8349 74.7275 56.835C73.4927 56.835 72.3133 56.5977 71.2295 56.1719V60.332ZM47.0742 40.168C42.3181 40.168 38.4629 44.0234 38.4629 48.7793V54.8398C38.4631 59.5956 42.3182 63.4512 47.0742 63.4512C51.8298 63.4508 55.6854 59.5954 55.6855 54.8398V48.7793C55.6855 44.0236 51.8299 40.1683 47.0742 40.168ZM19.4209 32.5918C14.6647 32.5918 10.8096 36.4472 10.8096 41.2031V47.2637C10.8096 52.0195 14.6647 55.875 19.4209 55.875C24.1764 55.8749 28.0322 52.0195 28.0322 47.2637V41.2031C28.0322 36.4473 24.1765 32.5919 19.4209 32.5918ZM74.7275 32.5918C69.9715 32.5918 66.1162 36.4472 66.1162 41.2031V47.2637C66.1163 52.0195 69.9717 55.875 74.7275 55.875C79.4831 55.8746 83.3388 52.0193 83.3389 47.2637V41.2031C83.3389 36.4475 79.4832 32.5922 74.7275 32.5918ZM51.4844 29.3477C51.171 31.5029 49.3153 33.1582 47.0732 33.1582C44.8313 33.158 42.9755 31.5028 42.6621 29.3477L33.4912 32.3682C30.7403 33.2717 28.8319 35.7505 28.6318 38.6064C28.8642 39.4325 28.9922 40.3029 28.9922 41.2031V47.2637C28.9922 47.9427 28.9206 48.6051 28.7861 49.2441H37.502V48.7793C37.502 43.4932 41.7879 39.207 47.0742 39.207C52.3601 39.2074 56.6455 43.4934 56.6455 48.7793V49.2441H65.3613C65.2268 48.6051 65.1553 47.9427 65.1553 47.2637V41.2031C65.1553 40.302 65.2808 39.4302 65.5137 38.6035C65.3189 35.8388 63.5251 33.4277 60.9141 32.458L60.6562 32.3682L51.4844 29.3477ZM50.5713 24.541C49.4877 24.9668 48.3088 25.204 47.0742 25.2041C45.8394 25.2041 44.6599 24.9668 43.5762 24.541V28.7012C43.5763 30.6325 45.1418 32.198 47.0732 32.1982C49.0047 32.1982 50.5711 30.6327 50.5713 28.7012V24.541ZM47.0742 0.960938C42.3181 0.960938 38.4629 4.81632 38.4629 9.57227V15.6328C38.4632 20.3885 42.3183 24.2441 47.0742 24.2441C51.8298 24.2438 55.6853 20.3883 55.6855 15.6328V9.57227C55.6855 4.81653 51.8299 0.961278 47.0742 0.960938Z" fill="white"/>
</svg>
