<svg width="106" height="96" viewBox="0 0 106 96" fill="none" xmlns="http://www.w3.org/2000/svg">
<path d="M43.8701 4.78613L48.8066 15.6572C49.9012 17.8491 51.04 20.6674 51.04 24.6934V52.2275L51.0312 53.3691C50.984 55.9165 50.6846 57.7764 48.918 61.6436L36.8779 88.127L16.4404 96L39.3574 45.4053C40.1392 43.862 39.469 42.5645 38.1289 42.5645H29.8643L20.4609 63.21L0 71.083L16.1943 35.4521C17.3559 32.8353 18.0706 32.2754 21.376 32.2754H37.8838C38.7854 32.2898 40.3295 31.8063 39.5322 29.792L39.4473 29.5918C38.4644 27.4086 30.0878 8.95429 26.0225 0L43.8701 4.78613ZM65.873 29.5918L65.7881 29.792C64.991 31.8066 66.5356 32.2899 67.4375 32.2754H83.9443C87.2494 32.2755 87.9647 32.8354 89.126 35.4521L105.32 71.083L84.8604 63.21L75.4561 42.5645H67.1914L67.0674 42.5684C65.8104 42.646 65.2053 43.9102 65.9629 45.4053L88.8799 96L68.4424 88.127L56.4023 61.6436C54.6354 57.7765 54.3363 55.9165 54.2891 53.3691L54.2803 52.2275V24.6934C54.2803 20.6674 55.4194 17.8491 56.5137 15.6572L61.4512 4.78613L79.2979 0C75.2322 8.95414 66.8564 27.4081 65.873 29.5918ZM40.3594 29.1816C40.6496 29.8265 40.79 30.4399 40.7451 31.0127C40.6985 31.6072 40.4561 32.0972 40.0928 32.4629C39.4248 33.1352 38.4716 33.2809 37.8838 33.2744V33.2754H21.376C19.7234 33.2754 18.9862 33.43 18.5166 33.7275C18.0602 34.0167 17.6909 34.5451 17.1084 35.8574L17.1045 35.8652L1.9209 69.2715L19.7197 62.4229L28.9541 42.1504L29.2207 41.5645H38.1289C39.153 41.5645 40.0331 42.0845 40.4482 42.9893C40.8409 43.845 40.7397 44.8665 40.2686 45.8184L18.3574 94.1885L36.1367 87.3398L48.0078 61.2305L48.0088 61.2285C49.0009 59.0569 49.4985 57.5805 49.7559 56.2832C50.0132 54.9859 50.04 53.8223 50.04 52.2275V24.6934C50.04 20.8788 48.968 18.218 47.9121 16.1035L47.9033 16.0869L47.8955 16.0703L43.1533 5.62891L27.8076 1.51367C32.0906 10.948 39.4418 27.1434 40.3594 29.1816ZM62.166 5.62891L57.4248 16.0703L57.417 16.0869L57.4082 16.1035C56.4185 18.0859 55.4147 20.5482 55.293 23.9912L55.2803 24.6934V52.2275C55.2803 53.8223 55.308 54.9859 55.5654 56.2832C55.7906 57.4182 56.1995 58.6904 56.9629 60.4453L57.3125 61.2285V61.2305L69.1826 87.3398L86.9609 94.1885L65.0518 45.8184H65.0508C64.5797 44.8667 64.4795 43.8449 64.8721 42.9893C65.2872 42.0845 66.1674 41.5645 67.1914 41.5645H76.0996L76.3662 42.1504L85.5996 62.4229L103.398 69.2715L88.2158 35.8652L88.2119 35.8574C87.6296 34.5453 87.2601 34.0167 86.8037 33.7275C86.334 33.4301 85.5966 33.2754 83.9443 33.2754H67.4375V33.2744C66.8497 33.281 65.8968 33.1351 65.2285 32.4629C64.8651 32.0971 64.6219 31.6073 64.5752 31.0127C64.5303 30.4398 64.6707 29.8257 64.9609 29.1807C65.8796 27.1408 73.2297 10.9474 77.5127 1.51367L62.166 5.62891Z" fill="white"/>
</svg>
