<svg width="96" height="96" viewBox="0 0 96 96" fill="none" xmlns="http://www.w3.org/2000/svg">
<path d="M3.23099 28.9008C0.771743 27.7409 0.805868 24.2303 3.28742 23.1188L46.7386 3.65432C47.1481 3.47089 47.5917 3.37613 48.0404 3.37625C48.4891 3.37639 48.9327 3.4714 49.3422 3.65507L92.7141 23.1172C95.194 24.23 95.2272 27.7388 92.7687 28.8983L92.7635 28.9008C92.339 29.1008 91.8755 29.2046 91.4063 29.2047H4.58829C4.11899 29.2047 3.65549 29.1008 3.23099 28.9008Z" stroke="white" stroke-width="0.959997" stroke-miterlimit="10" stroke-linecap="round" stroke-linejoin="round"/>
<path d="M1.48553 89.1331V91.3234C1.48553 91.6686 1.62264 91.9996 1.8667 92.2437C2.11076 92.4879 2.44178 92.625 2.78697 92.6251H93.292C93.6372 92.625 93.9682 92.4879 94.2122 92.2437C94.4564 91.9996 94.5934 91.6686 94.5934 91.3234V89.1331C94.5934 87.4474 93.2272 86.0809 91.5415 86.0809H4.53764C2.85203 86.0809 1.48553 87.4474 1.48553 89.1331Z" stroke="white" stroke-width="0.959997" stroke-miterlimit="10" stroke-linecap="round" stroke-linejoin="round"/>
<path d="M53.8045 17.8625C53.8045 21.0697 51.2044 23.6697 47.9972 23.6697C44.7901 23.6697 42.19 21.0697 42.19 17.8625C42.19 14.6553 44.7901 12.0552 47.9972 12.0552C51.2044 12.0552 53.8045 14.6553 53.8045 17.8625Z" stroke="white" stroke-width="0.959997" stroke-miterlimit="10" stroke-linecap="round" stroke-linejoin="round"/>
<path d="M4.99554 29.204V32.7249C4.99554 34.3503 6.3131 35.6679 7.93853 35.6679H88.0561C89.6815 35.6679 90.9991 34.3503 90.9991 32.7249V29.204" stroke="white" stroke-width="0.959997" stroke-miterlimit="10" stroke-linecap="round" stroke-linejoin="round"/>
<path d="M90.9991 86.0812V81.608C90.9991 81.1755 90.8273 80.7607 90.5214 80.4548C90.2156 80.1489 89.8008 79.9771 89.3683 79.9771H6.62623C6.41206 79.9771 6.2 80.0193 6.00215 80.1012C5.8043 80.1832 5.62452 80.3033 5.47309 80.4548C5.32167 80.6062 5.20155 80.786 5.11961 80.9839C5.03768 81.1817 4.99552 81.3938 4.99554 81.608V86.0812" stroke="white" stroke-width="0.959997" stroke-miterlimit="10" stroke-linecap="round" stroke-linejoin="round"/>
<path d="M25.1245 79.9763V76.5596C25.1245 75.1459 23.9783 73.9997 22.5645 73.9997H12.2376C10.8237 73.9997 9.6778 75.1459 9.6778 76.5596V79.9763" stroke="white" stroke-width="0.959997" stroke-miterlimit="10" stroke-linecap="round" stroke-linejoin="round"/>
<path d="M9.6778 35.6685V39.2862C9.6778 40.6999 10.8237 41.846 12.2376 41.846H22.5645C23.9785 41.846 25.1245 40.6999 25.1245 39.2862V35.6685" stroke="white" stroke-width="0.959997" stroke-miterlimit="10" stroke-linecap="round" stroke-linejoin="round"/>
<path d="M12.9057 53.8029V74.0007" stroke="white" stroke-width="0.959997" stroke-miterlimit="10" stroke-linecap="round" stroke-linejoin="round"/>
<path d="M12.9057 41.8472V47.2352" stroke="white" stroke-width="0.959997" stroke-miterlimit="10" stroke-linecap="round" stroke-linejoin="round"/>
<path d="M21.8967 74.0003V41.8456" stroke="white" stroke-width="0.959997" stroke-miterlimit="10" stroke-linecap="round" stroke-linejoin="round"/>
<path d="M55.7231 79.9763V76.5596C55.7231 75.1459 54.577 73.9997 53.1632 73.9997H42.8362C41.4223 73.9997 40.2763 75.1459 40.2763 76.5596V79.9763" stroke="white" stroke-width="0.959997" stroke-miterlimit="10" stroke-linecap="round" stroke-linejoin="round"/>
<path d="M40.2765 35.6685V39.2862C40.2765 40.6999 41.4225 41.846 42.8364 41.846H53.1633C54.5772 41.846 55.7233 40.6999 55.7233 39.2862V35.6685" stroke="white" stroke-width="0.959997" stroke-miterlimit="10" stroke-linecap="round" stroke-linejoin="round"/>
<path d="M43.5042 41.8456V74.0003" stroke="white" stroke-width="0.959997" stroke-miterlimit="10" stroke-linecap="round" stroke-linejoin="round"/>
<path d="M52.4956 74.0003V41.8456" stroke="white" stroke-width="0.959997" stroke-miterlimit="10" stroke-linecap="round" stroke-linejoin="round"/>
<path d="M86.317 79.9763V76.5596C86.317 75.1459 85.1709 73.9997 83.757 73.9997H73.4301C72.0161 73.9997 70.8702 75.1459 70.8702 76.5596V79.9763" stroke="white" stroke-width="0.959997" stroke-miterlimit="10" stroke-linecap="round" stroke-linejoin="round"/>
<path d="M70.8702 35.6685V39.2862C70.8702 40.6999 72.0161 41.846 73.4301 41.846H83.757C85.1709 41.846 86.317 40.6999 86.317 39.2862V35.6685" stroke="white" stroke-width="0.959997" stroke-miterlimit="10" stroke-linecap="round" stroke-linejoin="round"/>
<path d="M74.0978 68.7435V74.0006" stroke="white" stroke-width="0.959997" stroke-miterlimit="10" stroke-linecap="round" stroke-linejoin="round"/>
<path d="M74.0978 41.8464V62.1752" stroke="white" stroke-width="0.959997" stroke-miterlimit="10" stroke-linecap="round" stroke-linejoin="round"/>
<path d="M83.0891 74.0003V41.8456" stroke="white" stroke-width="0.959997" stroke-miterlimit="10" stroke-linecap="round" stroke-linejoin="round"/>
</svg>
